<svg width="69" height="60" viewBox="0 0 69 60" fill="none" xmlns="http://www.w3.org/2000/svg">
<path d="M24.7871 48.9346C24.403 49.0481 23.9966 49.0982 23.5623 49.0782C22.5735 49.0325 21.5803 49.0681 20.4211 49.0681C21.8141 47.1872 22.6638 45.1804 22.754 42.8408C25.6245 42.5893 28.3836 42.3489 31.1384 42.1074C31.1551 42.2142 31.183 42.2743 31.1652 42.3054C31.1629 42.3077 31.1618 42.3099 31.1607 42.3121C32.3387 42.1686 33.4935 41.8847 34.7016 41.9181C34.7862 41.8636 34.8798 41.8213 34.9667 41.8035C35.3686 41.7178 35.7861 41.6944 36.1992 41.6588C39.8414 41.3483 43.4847 41.0466 47.1258 40.7294C51.3258 40.3644 55.5249 39.9793 59.7249 39.6164C60.9364 39.5118 61.1991 39.3192 61.5476 38.1194C62.5654 34.6156 63.5853 31.1119 64.602 27.607C65.829 23.3775 67.0537 19.1481 68.2775 14.9164C68.6527 13.6142 68.2074 12.9486 66.869 12.8428C64.9739 12.6937 63.0776 12.5624 61.1813 12.431C58.1415 12.2207 55.1006 12.0225 52.0607 11.8077C47.5144 11.4872 42.9691 11.1511 38.4228 10.8338C34.5568 10.5656 30.6897 10.3218 26.8226 10.0536C22.1549 9.73083 17.4871 9.38468 12.8183 9.07972C12.2838 9.04521 12.0611 8.84378 11.8897 8.3674C11.1336 6.26047 10.3298 4.17132 9.57149 2.06549C9.29312 1.29528 8.83426 0.867898 7.99247 0.77663C5.86127 0.547349 3.73676 0.254613 1.60667 0.0119756C0.75486 -0.0848567 0.137996 0.411546 0.0522579 1.28304C-0.014551 1.95975 -0.00779291 2.64872 0.0200441 3.32877C0.0579025 4.3227 0.501014 4.76011 1.49535 4.90703C3.39718 5.18751 5.2923 5.52807 7.20303 5.744C7.93236 5.82525 8.24197 6.11576 8.4591 6.77801C11.9632 17.4318 15.4952 28.0767 19.0037 38.7282C19.3979 39.9258 19.8823 41.1435 19.978 42.3778C20.164 44.7663 18.9693 46.6707 17.3948 48.3714C16.8592 48.9502 16.3203 49.2763 15.4807 49.1037C15.0253 49.0103 14.5053 49.1149 14.0343 49.2217C11.2016 49.8617 9.45231 52.5719 9.92666 55.5459C10.3553 58.2205 12.9553 60.1671 15.7958 59.9401C18.5483 59.7197 20.7463 57.3278 20.6862 54.5074C20.6673 53.6315 20.3877 52.7623 20.224 51.8663H46.2394C46.0813 52.8123 45.8275 53.6883 45.813 54.5676C45.7763 56.8103 46.872 58.4564 48.8584 59.4103C50.9083 60.3953 52.917 60.1404 54.6785 58.6902C56.43 57.2488 56.9667 55.3277 56.4523 53.1629C55.8499 50.6308 53.6864 49.0715 50.9194 49.0693C44.1116 49.0648 37.3027 49.0681 30.496 49.0681H29.6509" fill="#D13763"/>
</svg>
