<svg id="Capa_1" data-name="Capa 1" xmlns="http://www.w3.org/2000/svg" viewBox="0 0 151.91 37.96"><defs><style>.cls-1{fill:#d13763;}</style></defs><title>svgs</title><path class="cls-1" d="M30.13,26c-5.76,9.5-19.39,17.87-27.49,5.76-2.07-3.1-1.22-8.23.63-12.82C-.11,15.59.34,9.87,2.68,6.23c3-4.68,8.33-4.37,6.89-3.11C6.15,6.05,1.83,12.44,4.48,16.26a30.16,30.16,0,0,1,2.25-3.64C10.6,7.26,18.21.87,24.82,1.14c3.73.14,7.87,2.52,6.3,7-2,5.9-7.47,11.21-13.63,12.69a21.7,21.7,0,0,1-10.08.36C5.2,26,4.75,30.44,6.6,32.78s8.28,2.2,15.29-2.93a30.61,30.61,0,0,0,7.83-8.5C30.71,19.77,32,22.88,30.13,26ZM8.67,18.78c3.69.72,8.37-.85,11.65-3.19s7.11-6.26,7.47-10.08c.4-4.32-7.11.49-9.9,2.65A37.06,37.06,0,0,0,8.67,18.78Z"/><path class="cls-1" d="M48.67,26.66C47.05,29.09,43,32.37,40.12,29a14.33,14.33,0,0,1-3.37,3.56c-3.47,2.34-5.94.76-6.71.13S26.94,31,27.16,28c.5-5.94,4.73-10.67,6.75-12.47s3.6-1.93,5.27-1C44,17.3,44,19.91,42.46,24.68a13.54,13.54,0,0,1-.72,1.57,1.82,1.82,0,0,0,.72,1.08c.95.36,2.84-.81,5.18-4.54C48,22.16,50.43,23.91,48.67,26.66Zm-11.2-1.22c.18-.27.36-.58.58-.94a13.61,13.61,0,0,1-.9-6.08A17.42,17.42,0,0,0,33.33,23c-1.85,2.92-3.06,7.15-2,8S36,27.69,37.47,25.44Z"/><path class="cls-1" d="M52.77,14.06c.85-1.26,3.69,1.44,2.56,3.64S51.87,24,50,27c4.59-4.41,9.77-9.68,12.87-13,.85-1,4.68.86,3.46,2.52-2.2,3.06-6.16,8.55-7.74,11.79-.63,1.35-1.21,2.57-.76,3s5.17-2.47,9.22-8.37c.63-.94,2.57,1.49,1,3.83-5.63,8.37-12,8-13.32,3.73-.45-1.62.45-4.41,1.4-6.16l.4-.68c-3.87,3.87-8.28,7.92-10.35,9.63-.81.63-4.14-1.12-3.46-2.43C43.77,29,51.73,15.59,52.77,14.06Z"/><path class="cls-1" d="M80.8,17.52c-.72,0-3,.09-4.82.09-1.93,2.61-3.82,5.27-4.32,5.9-1.88,2.61-3.64,6.39-2.74,7.2,1.26,1.12,5.67.9,11.52-7.11.58-.81,2.92,1,1.08,3.64C77.15,33.5,69.91,34.49,68,32.69c-5.08-4.77-1.93-8.55,1-12.65.44-.63,1.17-1.57,2-2.7-3.33,0-3.24-3.06-2.16-3.06,1.48,0,1.44-.09,4.49,0,2-2.66,3.92-5.18,4-5.36,1-1.17,3.56,1.71,3.06,2.57-.27.45-1.08,1.57-2.11,3C81,14.55,83.77,17.52,80.8,17.52Z"/><path class="cls-1" d="M101.05,27.06c-4.19,6.3-8.37,7.34-10.49,5.81A3.42,3.42,0,0,1,89.17,30c-2.57,3-5.49,4.95-8.46,2S79,25.76,82.37,20.58a18.6,18.6,0,0,1,6.3-6c1.62-.81,2.7-.59,4.14.54.86.63,2.21,1.17,2.25,2.38,1.22.45,2.48,1.8,2.07,2.39s-1.84,2.34-3.19,4.5c-1.58,2.43-3.42,5.8-2.12,6.7s5.9-4.54,8.24-7.87C100.6,22.38,102.71,24.59,101.05,27.06ZM88.76,24.63l.81-1.17c1.22-1.89,3.06-5.26,2.39-5.89s-4.19,2.16-7,6.34c-1.89,2.75-3.83,6.21-3.33,6.89S84.27,30.26,88.76,24.63Z"/><path class="cls-1" d="M109.19,20.22c1.35-2.38,1.62-3.15,1.44-3.33-.36-.36-2.52,1.22-5.31,5-2.92,4.05-3.73,7.78-2.25,8.82,2.3,1.57,8.73-1.13,13.46-8.15.49-.67,2.79,1.13,1.08,3.83-2.93,4.63-10.67,9.36-16.2,5.76a4.91,4.91,0,0,1-2.66-4.68c0-4.86,5.9-13.23,10-14.31a2.21,2.21,0,0,1,2.11.4c3.11,3,3.65,4,2.57,6.75a11.46,11.46,0,0,1-2.66,4C110.09,25,108,22.34,109.19,20.22Z"/><path class="cls-1" d="M130.12,17.52c-.72,0-3,.09-4.82.09-1.93,2.61-3.82,5.27-4.32,5.9-1.89,2.61-3.64,6.39-2.74,7.2,1.26,1.12,5.67.9,11.52-7.11.58-.81,2.92,1,1.08,3.64-4.37,6.26-11.61,7.25-13.5,5.45-5.09-4.77-1.94-8.55.94-12.65.45-.63,1.17-1.57,2-2.7-3.32,0-3.24-3.06-2.16-3.06,1.49,0,1.44-.09,4.5,0,2-2.66,3.92-5.18,4.05-5.36,1-1.17,3.56,1.71,3.06,2.57-.27.45-1.08,1.57-2.11,3C130.34,14.55,133.09,17.52,130.12,17.52Z"/><path class="cls-1" d="M150.23,26.66c-1.62,2.43-5.71,5.71-8.55,2.29a14.33,14.33,0,0,1-3.37,3.56c-3.47,2.34-5.94.76-6.71.13S128.5,31,128.72,28c.5-5.94,4.73-10.67,6.75-12.47s3.6-1.93,5.27-1c4.81,2.75,4.86,5.36,3.28,10.13a13.54,13.54,0,0,1-.72,1.57,1.82,1.82,0,0,0,.72,1.08c.95.36,2.84-.81,5.18-4.54C149.56,22.16,152,23.91,150.23,26.66ZM139,25.44c.18-.27.36-.58.58-.94a13.61,13.61,0,0,1-.9-6.08A17.42,17.42,0,0,0,134.89,23c-1.85,2.92-3.06,7.15-2,8S137.54,27.69,139,25.44Z"/></svg>