<svg width="47" height="47" viewBox="0 0 47 47" fill="none" xmlns="http://www.w3.org/2000/svg">
<path d="M32.3125 0H14.6875C6.57706 0 0 6.57706 0 14.6875V32.3125C0 40.4229 6.57706 47 14.6875 47H32.3125C40.4229 47 47 40.4229 47 32.3125V14.6875C47 6.57706 40.4229 0 32.3125 0ZM42.5938 32.3125C42.5938 37.9819 37.9819 42.5938 32.3125 42.5938H14.6875C9.01813 42.5938 4.40625 37.9819 4.40625 32.3125V14.6875C4.40625 9.01813 9.01813 4.40625 14.6875 4.40625H32.3125C37.9819 4.40625 42.5938 9.01813 42.5938 14.6875V32.3125Z" fill="#D13763"/>
<path d="M23.5 11.75C17.0111 11.75 11.75 17.0111 11.75 23.5C11.75 29.9889 17.0111 35.25 23.5 35.25C29.9889 35.25 35.25 29.9889 35.25 23.5C35.25 17.0111 29.9889 11.75 23.5 11.75ZM23.5 30.8438C19.4521 30.8438 16.1562 27.5479 16.1562 23.5C16.1562 19.4492 19.4521 16.1562 23.5 16.1562C27.5479 16.1562 30.8438 19.4492 30.8438 23.5C30.8438 27.5479 27.5479 30.8438 23.5 30.8438Z" fill="#D13763"/>
<path d="M36.1313 12.4344C36.996 12.4344 37.697 11.7334 37.697 10.8687C37.697 10.004 36.996 9.30304 36.1313 9.30304C35.2666 9.30304 34.5656 10.004 34.5656 10.8687C34.5656 11.7334 35.2666 12.4344 36.1313 12.4344Z" fill="#D13763"/>
</svg>
