<svg id="Capa_1" data-name="Capa 1" xmlns="http://www.w3.org/2000/svg" viewBox="0 0 249.1 38.21"><defs><style>.cls-1{fill:#d13763;}</style></defs><title>svgs</title><path class="cls-1" d="M.89,34.06c.23-.36,3.38-5.76,5.4-9.22C10.84,17,19.52,6.08,18.35,5.13,17,4,13,8.06,11.42,10.35A33.44,33.44,0,0,0,6.88,19c-.9,2.39-3-2.16-1.71-5.71C8.9,3.1,17.81.68,20.24,3.51c3,3.55.18,6.79-1.17,9.14-1.21,2.15-6.21,9.94-8.77,13.94,8-7.74,16.47-16.65,23-24.2.72-.86,4.19,1.3,3.65,2.34-3.87,6.79-8.24,13.31-12,20.2-1.39,2.56-5.8,9.49-3.37,9.49.27,0,.94.14,3.37-2.25a52.72,52.72,0,0,0,8.33-9.9c1-1.57,2.38,1.63.4,4.68-3.78,5.85-9.09,9.9-11.92,9.9-4.41,0-4.91-4.59-3.38-8.41A77.69,77.69,0,0,1,24.47,16.6,267.52,267.52,0,0,1,4.13,36.85C3,37.8.26,35.32.89,34.06Z"/><path class="cls-1" d="M43.28,32.08c1.22.86,5.9-4.5,8.19-7.83.59-.81,2.7,1.35,1,3.83-4.19,6.25-8.37,7.29-10.49,5.76a5.29,5.29,0,0,1-1.93-2.57c-2.61,2.7-5.63,4.46-8.33,1.89s-1.53-6.75,1.94-11.83a34.13,34.13,0,0,1,4.36-5.76c1.35-1.26,3.83,1.57,3.15,2.61l-4.86,6.66c-1.89,2.7-3.78,6.16-3.28,6.84s2.65-.54,7.15-6.16l6.89-10c1.21-.85,4,1.58,3.42,2.39-.23.31-2,2.56-3.69,5.13C45.76,24.66,41.48,30.82,43.28,32.08Z"/><path class="cls-1" d="M62.72,14.58c3.47,2.47,3.6,3.69,2.48,6.61-1.58,4-4.5,6.71-7.7,7.38-1.17.23-2.47-.8-3.24-1.53-.67,2-.63,4,.23,4.59,2.34,1.58,8.73-1.08,13.5-8.1.45-.67,2.79,1.08,1,3.87C66.05,32,58.4,36.76,52.91,33.12a5,5,0,0,1-2.74-4.86c0-4.77,5.67-13,9.76-14.13A3.25,3.25,0,0,1,62.72,14.58ZM55.3,26.06c.67.35,2.56-1.27,4.23-3.25,2.2-2.61,3.15-5.08,2.79-5.35S59.48,19,56.78,22.81C55.61,24.43,54.89,25.83,55.3,26.06Z"/><path class="cls-1" d="M80.05,15.43c-3.78,4.82-2.75,8.19-3.11,12.92-.18,2,.45,5.17-2.07,6.21a7.54,7.54,0,0,1-9.27-3.15,3,3,0,0,1-.27-.54c-.63.13-3.28-.14-2.56-.86,4.36-4.23,10.89-15.3,13-17.82.77-.94,2.66,0,3.65,1C80.14,13.86,80.63,14.71,80.05,15.43ZM73.21,25.2c.09-.86.13-1.71.22-2.52-2,2.43-3.82,4.63-5.53,6.43.45,1.4,1,3.38,2.47,3.47C72.49,32.76,72.94,28.8,73.21,25.2Z"/><path class="cls-1" d="M95.3,18.49c-.72,0-3,.09-4.81.09-1.94,2.61-3.83,5.27-4.32,5.9-1.89,2.61-3.65,6.39-2.75,7.2,1.26,1.12,5.67.9,11.52-7.11.59-.81,2.93,1,1.08,3.64-4.36,6.26-11.61,7.25-13.5,5.45-5.08-4.77-1.93-8.55,1-12.65.45-.63,1.17-1.57,2-2.7-3.33,0-3.24-3.06-2.16-3.06,1.48,0,1.44-.09,4.5,0,2-2.66,3.91-5.18,4-5.36,1-1.16,3.55,1.71,3.06,2.57-.27.45-1.08,1.57-2.12,3C95.53,15.52,98.27,18.49,95.3,18.49Z"/><path class="cls-1" d="M114,27.94c-4.18,6.3-9.9,7.52-12.28,5.72-3.6-2.79.22-9,3.19-13.5a4.66,4.66,0,0,1-2.74-1.22,96.76,96.76,0,0,1-6.08,9.23c-.58.81-4.09.13-2.88-1.35A33.39,33.39,0,0,0,99,17.05a2.33,2.33,0,0,1-.63-2.38c.94-3.69,4-6.39,5.44-5.94,1.8.54,2.34,2.65,1.26,5.71a16.29,16.29,0,0,1-1.44,3c1.17.36,2.84-.72,4.46-1.89a.48.48,0,0,1,.4-.14,1.06,1.06,0,0,1,.81.45c1.62,1.58,1.71,3.6,1.44,4-1.08,1.58-8.59,10.49-7.42,12.33s7.47-4.68,9.58-8.14C113.48,23.31,115.64,25.47,114,27.94Z"/><path class="cls-1" d="M133.24,28c-4.19,6.3-8.37,7.34-10.49,5.81A3.42,3.42,0,0,1,121.36,31c-2.57,3-5.49,5-8.46,2s-1.76-6.25,1.66-11.43a18.6,18.6,0,0,1,6.3-6c1.62-.81,2.7-.59,4.14.54.86.63,2.21,1.17,2.25,2.38,1.22.45,2.48,1.8,2.07,2.39s-1.84,2.34-3.19,4.5c-1.58,2.43-3.42,5.8-2.12,6.7s5.9-4.54,8.24-7.87C132.79,23.35,134.9,25.56,133.24,28ZM121,25.6l.81-1.17c1.22-1.89,3.06-5.26,2.39-5.89s-4.19,2.16-7,6.34c-1.89,2.75-3.83,6.21-3.33,6.89S116.45,31.23,121,25.6Z"/><path class="cls-1" d="M161.14,18.49c-.72,0-3,.09-4.82.09-1.93,2.61-3.82,5.27-4.32,5.9-1.89,2.61-3.64,6.39-2.74,7.2,1.26,1.12,5.67.9,11.52-7.11.58-.81,2.92,1,1.08,3.64-4.37,6.26-11.61,7.25-13.5,5.45-5.09-4.77-1.94-8.55.94-12.65.45-.63,1.17-1.57,2-2.7-3.33,0-3.24-3.06-2.16-3.06,1.49,0,1.44-.09,4.5,0,2-2.66,3.92-5.18,4-5.36,1-1.16,3.56,1.71,3.06,2.57-.27.45-1.08,1.57-2.11,3C161.36,15.52,164.11,18.49,161.14,18.49Z"/><path class="cls-1" d="M165.82,24.52c-1.85,2.61-3.51,6.39-2.66,7.16,1.31,1.08,6.39-4.28,8.73-7.61.54-.76,2.66,1.35,1,3.83-4.18,6.3-8.64,7.51-10.57,5.76-5.09-4.68-2-8.46.81-12.56,1.71-2.47,3.64-4.54,3.82-4.81.95-1,3.11,2.07,2.61,3C168.74,20.65,166.76,23.22,165.82,24.52ZM175.09,12a2.68,2.68,0,0,1-3.6,1.17c-1.13-.67-1.26-2.38-.36-3.73a2.73,2.73,0,0,1,3.6-1.22A2.74,2.74,0,0,1,175.09,12Z"/><path class="cls-1" d="M182.92,14.58c3.46,2.47,3.6,3.69,2.47,6.61-1.57,4-4.5,6.71-7.69,7.38-1.17.23-2.48-.8-3.24-1.53-.68,2-.63,4,.22,4.59,2.34,1.58,8.73-1.08,13.5-8.1.45-.67,2.79,1.08,1,3.87-2.93,4.59-10.57,9.36-16.06,5.72a5,5,0,0,1-2.75-4.86c0-4.77,5.67-13,9.77-14.13A3.26,3.26,0,0,1,182.92,14.58Zm-7.43,11.48c.68.35,2.57-1.27,4.23-3.25,2.21-2.61,3.15-5.08,2.79-5.35S179.68,19,177,22.81C175.81,24.43,175.09,25.83,175.49,26.06Z"/><path class="cls-1" d="M193.13,15c.86-1.26,3.69,1.44,2.57,3.64s-3.47,6.26-5.31,9.32c4.59-4.41,9.76-9.68,12.86-13,.86-1,4.68.86,3.47,2.52-2.21,3.06-6.17,8.56-7.74,11.79-.63,1.36-1.21,2.57-.77,3s5.18-2.47,9.23-8.36c.63-.95,2.56,1.48,1,3.82-5.62,8.37-12,8.05-13.31,3.73-.46-1.62.45-4.41,1.39-6.16l.4-.68c-3.86,3.87-8.27,7.92-10.34,9.63-.81.63-4.14-1.12-3.47-2.43C184.13,29.92,192.1,16.56,193.13,15Z"/><path class="cls-1" d="M221.84,23.08c-1.08,1.58-4.86,6.93-3.42,8.6,1.62,1.84,6.84-4.28,9.18-7.61.54-.81,2.65,1.35,1,3.83-4.18,6.3-8.86,7.87-11.38,5.4a4.82,4.82,0,0,1-1.35-2.61c-2.61,3.1-5.63,5.31-8.69,2.25s-1.75-6.21,1.67-11.39a18,18,0,0,1,6.3-5.94,3.28,3.28,0,0,1,4.09.5,16.79,16.79,0,0,1,1.53,1.08c2-3,9.14-13.72,11.29-16.06.5-.54,1.67-.32,2.66,1.12A3.5,3.5,0,0,1,234.8,6a129.44,129.44,0,0,1-11.93,15.7S222.33,22.36,221.84,23.08Zm-3.46-4.54c-.77-.63-4.14,2.2-7,6.34-1.85,2.75-3.78,6.21-3.29,6.84s2.84-.45,7.25-6.3C218.92,20.74,218.74,18.85,218.38,18.54Z"/><path class="cls-1" d="M247.76,28c-4.19,6.3-8.37,7.34-10.48,5.81a3.45,3.45,0,0,1-1.4-2.84c-2.56,3-5.49,5-8.46,2s-1.75-6.25,1.67-11.43a18.51,18.51,0,0,1,6.3-6c1.62-.81,2.7-.59,4.14.54.85.63,2.2,1.17,2.25,2.38,1.21.45,2.47,1.8,2.07,2.39a55.09,55.09,0,0,0-3.2,4.5c-1.58,2.43-3.42,5.8-2.12,6.7s5.9-4.54,8.24-7.87C247.31,23.35,249.42,25.56,247.76,28ZM235.48,25.6l.81-1.17c1.21-1.89,3.06-5.26,2.38-5.89s-4.18,2.16-7,6.34c-1.89,2.75-3.82,6.21-3.33,6.89S231,31.23,235.48,25.6Z"/></svg>