<svg id="Capa_1" data-name="Capa 1" xmlns="http://www.w3.org/2000/svg" viewBox="0 0 235.02 43.1"><defs><style>.cls-1{fill:#d13763;}</style></defs><title>svgs</title><path class="cls-1" d="M22.58,41.61c-3.64,1.8-9.27-.32-13.9-5a10.82,10.82,0,0,1-5-1.44c-3.38-2-3.42-6.25-1.8-10.66A21.2,21.2,0,0,1,1.12,21c-.72-5.18,1-8.78,3.15-12C8.32,3,18.58-3.79,26,4.76c7.51,8.73-1.89,27.4-13,31.18,3.82,2.83,8.23,3.42,11.52.9C25.82,35.71,26.68,39.54,22.58,41.61ZM6.29,33.78a34.76,34.76,0,0,1-2.52-4.14,4.5,4.5,0,0,0,1,3.55A2.33,2.33,0,0,0,6.29,33.78Zm19-25.11C23.71,2.46,17,3.36,12.73,6.47,9.13,9,5.39,14,4.85,18.71a22.8,22.8,0,0,1,6.75-6.84c2.34-1.4,4.73-.18,4,.45C10.25,17,7.19,21.05,5.48,24.24A23.41,23.41,0,0,0,9.85,33C14.89,31.8,27.62,18.35,25.24,8.67Z"/><path class="cls-1" d="M40.31,31.44c1.22.85,5.9-4.5,8.19-7.83.59-.81,2.7,1.35,1,3.83-4.19,6.25-8.37,7.29-10.49,5.75a5.22,5.22,0,0,1-1.93-2.56c-2.61,2.7-5.63,4.45-8.33,1.89s-1.53-6.75,1.94-11.83a34.13,34.13,0,0,1,4.36-5.76c1.35-1.26,3.83,1.57,3.15,2.61L33.38,24.2C31.49,26.89,29.6,30.36,30.1,31s2.65-.54,7.15-6.16l6.89-10c1.21-.85,4,1.58,3.42,2.39-.23.31-2,2.56-3.69,5.13C42.79,24,38.51,30.18,40.31,31.44Z"/><path class="cls-1" d="M53.32,23.88c-1.85,2.61-3.51,6.39-2.66,7.15,1.31,1.08,6.39-4.27,8.73-7.6.54-.76,2.66,1.35,1,3.83-4.18,6.3-8.64,7.51-10.57,5.76-5.09-4.68-2-8.46.81-12.56,1.71-2.47,3.64-4.54,3.82-4.81,1-1,3.11,2.07,2.61,3C56.24,20,54.26,22.58,53.32,23.88Zm9.27-12.51A2.68,2.68,0,0,1,59,12.54c-1.13-.67-1.26-2.38-.36-3.73a2.72,2.72,0,0,1,3.6-1.22A2.74,2.74,0,0,1,62.59,11.37Z"/><path class="cls-1" d="M70.42,13.94c3.46,2.47,3.6,3.69,2.47,6.61-1.57,4-4.5,6.71-7.69,7.38-1.17.22-2.48-.81-3.24-1.53-.68,2-.63,4,.22,4.59,2.34,1.57,8.73-1.08,13.5-8.1.45-.67,2.79,1.08,1,3.87-2.92,4.59-10.57,9.36-16.06,5.72a5,5,0,0,1-2.75-4.87c0-4.76,5.67-13,9.77-14.12A3.26,3.26,0,0,1,70.42,13.94ZM63,25.41c.68.36,2.57-1.26,4.23-3.24,2.21-2.61,3.15-5.08,2.79-5.35s-2.83,1.53-5.53,5.35C63.31,23.79,62.59,25.19,63,25.41ZM70.6,11.15c1.84-.68,3.73-1.4,5.62-1.94,1.48-.4,3.55,1.94,2.56,2.21-1.84.54-4.63,1.39-5.57,1.62C71.86,13.4,69.38,11.6,70.6,11.15Z"/><path class="cls-1" d="M80.67,14.39c.86-1.26,3.69,1.44,2.57,3.64s-3.47,6.26-5.31,9.32c4.59-4.41,9.76-9.68,12.87-13,.85-1,4.68.86,3.46,2.52-2.2,3.06-6.16,8.55-7.74,11.79-.63,1.35-1.21,2.57-.76,3s5.17-2.48,9.22-8.37c.63-.94,2.57,1.49,1,3.82-5.63,8.37-12,8.06-13.32,3.74-.45-1.62.45-4.41,1.39-6.17L84.5,24c-3.87,3.87-8.28,7.92-10.35,9.63-.81.63-4.14-1.12-3.46-2.43C71.68,29.28,79.64,15.92,80.67,14.39Z"/><path class="cls-1" d="M105.92,13.94c3.46,2.47,3.6,3.69,2.47,6.61-1.57,4-4.5,6.71-7.69,7.38-1.17.22-2.48-.81-3.24-1.53-.68,2-.63,4,.23,4.59,2.33,1.57,8.72-1.08,13.49-8.1.45-.67,2.79,1.08,1,3.87-2.92,4.59-10.57,9.36-16.06,5.72a5,5,0,0,1-2.74-4.87c0-4.76,5.66-13,9.76-14.12A3.26,3.26,0,0,1,105.92,13.94ZM98.49,25.41c.68.36,2.57-1.26,4.23-3.24,2.21-2.61,3.15-5.08,2.79-5.35s-2.83,1.53-5.53,5.35C98.81,23.79,98.09,25.19,98.49,25.41Z"/><path class="cls-1" d="M123.24,14.79c-3.78,4.82-2.74,8.19-3.1,12.92-.18,2,.45,5.17-2.07,6.2a7.52,7.52,0,0,1-9.27-3.14,3.77,3.77,0,0,1-.27-.54c-.63.13-3.29-.14-2.57-.86,4.37-4.23,10.89-15.3,13-17.82.76-.94,2.65,0,3.64,1C123.33,13.22,123.83,14.07,123.24,14.79Zm-6.84,9.77c.09-.86.14-1.71.23-2.52-2,2.43-3.83,4.63-5.54,6.43.45,1.39,1,3.38,2.48,3.47C115.68,32.11,116.13,28.15,116.4,24.56Z"/><path class="cls-1" d="M152,14.79c-3.78,4.82-2.74,8.19-3.1,12.92-.18,2,.45,5.17-2.07,6.2a7.52,7.52,0,0,1-9.27-3.14,3.77,3.77,0,0,1-.27-.54c-.63.13-3.29-.14-2.57-.86,4.37-4.23,10.89-15.3,13-17.82.76-.94,2.65,0,3.64,1C152,13.22,152.54,14.07,152,14.79Zm-6.84,9.77c.09-.86.14-1.71.23-2.52-2,2.43-3.83,4.63-5.54,6.43.45,1.39,1,3.38,2.48,3.47C144.39,32.11,144.84,28.15,145.11,24.56Z"/><path class="cls-1" d="M173.42,27c-1.62,2.44-5.72,5.72-8.55,2.3a14.3,14.3,0,0,1-3.38,3.55c-3.46,2.35-5.94.77-6.7.14s-3.11-1.62-2.88-4.63c.49-5.94,4.72-10.67,6.75-12.47s3.6-1.93,5.26-1c4.82,2.75,4.86,5.36,3.29,10.13a15.47,15.47,0,0,1-.72,1.57,1.84,1.84,0,0,0,.72,1.08c.94.36,2.83-.81,5.17-4.54C172.74,22.49,175.17,24.24,173.42,27Zm-11.21-1.21c.18-.27.36-.58.59-.94a13.47,13.47,0,0,1-.9-6.08,17.23,17.23,0,0,0-3.83,4.55c-1.84,2.92-3.06,7.15-2,8S160.73,28,162.21,25.77Z"/><path class="cls-1" d="M203.3,27.07c-5.63,8.37-12,8.06-13.28,3.74-.49-1.62.45-4.41,1.4-6.17.22-.4.45-.85.67-1.25-4,3.78-8.23,7.51-10.3,9.31a1.37,1.37,0,0,1-1.76,0,2.32,2.32,0,0,1-1.17-2.83c.45-1.17,1.85-3.87,3.24-6.52a135,135,0,0,1-10.93,10.17,1.23,1.23,0,0,1-1,.13c-1.26-.27-3-1.53-2.52-2.52,1-1.89,9-15.25,10-16.78.86-1.26,3.69,1.44,2.61,3.64s-3.42,6.08-5.22,9.09c3.69-3.46,8.87-8.5,11.25-10.57.9-.81,1.71-1.13,2.34-.72,1.58,1.08,1.67,1.89,1.26,2.61-.58.94-3.06,5-5.35,9,4.77-4.32,10.39-9.63,13.72-13.19.77-.81,4.55.9,3.33,2.61-2.11,3.11-6.16,8.55-7.69,11.79-.63,1.35-1.22,2.57-.77,3s5.13-2.48,9.18-8.37C202.89,22.31,204.83,24.78,203.3,27.07Z"/><path class="cls-1" d="M222.24,27c-1.62,2.44-5.71,5.72-8.55,2.3a14.27,14.27,0,0,1-3.37,3.55c-3.47,2.35-5.94.77-6.71.14s-3.1-1.62-2.88-4.63c.5-5.94,4.73-10.67,6.75-12.47s3.6-1.93,5.27-1c4.81,2.75,4.86,5.36,3.28,10.13a13.54,13.54,0,0,1-.72,1.57,1.89,1.89,0,0,0,.72,1.08c.95.36,2.84-.81,5.18-4.54C221.57,22.49,224,24.24,222.24,27ZM211,25.77c.18-.27.36-.58.58-.94a13.61,13.61,0,0,1-.9-6.08,17.42,17.42,0,0,0-3.82,4.55c-1.85,2.92-3.06,7.15-2,8S209.55,28,211,25.77Z"/><path class="cls-1" d="M233.45,14.79c-3.78,4.82-2.75,8.19-3.11,12.92-.18,2,.45,5.17-2.07,6.2A7.53,7.53,0,0,1,219,30.77a3.77,3.77,0,0,1-.27-.54c-.63.13-3.28-.14-2.56-.86,4.36-4.23,10.89-15.3,13-17.82.77-.94,2.66,0,3.65,1C233.54,13.22,234,14.07,233.45,14.79Zm-6.84,9.77c.09-.86.13-1.71.22-2.52-2,2.43-3.82,4.63-5.53,6.43.45,1.39,1,3.38,2.47,3.47C225.89,32.11,226.34,28.15,226.61,24.56Z"/></svg>