<svg width="266" height="55" viewBox="0 0 266 55" fill="none" xmlns="http://www.w3.org/2000/svg">
<path d="M12.1621 40.842C13.0581 42.0595 14.2763 43.0562 15.8177 43.8354C17.359 44.6123 19.2747 45.0302 21.5646 45.0891C24.5306 45.1774 27.3491 44.5829 30.0212 43.3065C32.6923 42.029 35.1365 40.3279 37.3527 38.2009C39.5701 36.074 41.5152 33.6379 43.1882 30.8937C44.8623 28.1496 46.1836 25.3477 47.1522 22.4857C48.1208 19.6238 48.6936 16.823 48.8694 14.0788C49.0463 11.3346 48.7446 8.90646 47.9666 6.79312C47.1885 4.68092 45.8751 2.99455 44.0252 1.73176C42.1753 0.470105 39.7243 -0.101832 36.6711 0.0148207C35.1433 0.0737132 33.5509 0.403285 31.8927 1.0058C30.2333 1.60718 28.6035 2.41356 27.0043 3.42606C25.4039 4.43855 23.8625 5.64245 22.3801 7.03549C20.8966 8.42965 19.5753 9.9484 18.4161 11.5917C17.2558 13.2351 16.2872 14.9735 15.5092 16.8071C14.7311 18.6418 14.2388 20.4981 14.0347 22.3759C13.006 23.7553 12.1621 25.2661 11.502 26.9106C10.8419 28.5539 10.4075 30.204 10.2022 31.8621C9.99694 33.5201 10.0491 35.1272 10.3565 36.6822C10.665 38.2361 11.2661 39.6223 12.1621 40.842ZM12.5806 33.468C12.9334 31.7964 13.5787 30.1667 14.519 28.5811C14.5768 28.8755 14.6358 29.0817 14.6948 29.1983C14.9001 29.7555 15.0691 30.2992 15.2018 30.8269C15.3334 31.3558 15.5602 31.8689 15.8834 32.3672C15.9719 32.5144 16.1919 32.6469 16.5447 32.7636C16.8963 32.8814 17.2558 32.955 17.6233 32.9844C17.9908 33.0139 18.3061 32.9992 18.5704 32.9403C18.8346 32.8814 18.9367 32.7636 18.8789 32.588C18.1439 31.5608 17.5859 30.4758 17.2048 29.3308C16.8237 28.1858 16.6025 26.9966 16.5447 25.7644C17.6596 24.4439 18.9299 23.3147 20.3545 22.3747C21.7779 21.4358 23.283 20.7903 24.8686 20.4369C25.1317 20.3203 25.1759 20.079 25.0001 19.711C24.8243 19.344 24.5158 18.9703 24.0758 18.5886C23.6346 18.2069 23.106 17.8694 22.4902 17.5761C21.8732 17.2828 21.2573 17.1344 20.6403 17.1344C19.4652 17.6044 18.4229 18.1922 17.5133 18.8967C18.2176 16.7833 19.2089 14.7515 20.486 12.799C21.7631 10.8476 23.2308 9.1307 24.8901 7.6482C26.5483 6.16682 28.3392 4.99237 30.2628 4.1271C32.1853 3.2607 34.1452 2.84393 36.1425 2.87337C38.4903 2.93227 40.2824 3.54044 41.5152 4.70017C42.7481 5.8599 43.5409 7.37865 43.8937 9.25641C44.2453 11.1353 44.201 13.2622 43.761 15.6406C43.3209 18.0178 42.5939 20.446 41.581 22.9263C40.5682 25.4066 39.3126 27.8279 37.8155 30.1904C36.3183 32.5529 34.6953 34.6583 32.9498 36.5078C31.202 38.3572 29.3748 39.8465 27.4659 40.9768C25.557 42.1048 23.6641 42.6711 21.7858 42.6711C19.1715 42.6711 17.1458 42.2306 15.7076 41.3506C14.2695 40.4694 13.2997 39.355 12.8007 38.005C12.3016 36.6528 12.229 35.1419 12.5806 33.468Z" fill="#D13763"/>
<path d="M52.9648 47.4188C50.7338 49.3543 48.5096 50.6805 46.2934 51.3985C44.076 52.1166 41.8666 52.4325 39.6651 52.3442C37.4636 52.2559 35.261 51.8606 33.0595 51.1573C30.8569 50.4529 28.6622 49.6318 26.4755 48.694C24.2876 47.7551 22.0998 46.8038 19.913 45.8355C17.7263 44.8683 15.5384 44.0766 13.3517 43.4616C11.1638 42.8455 8.96912 42.5001 6.76764 42.4276C4.56502 42.3551 2.34879 42.7572 0.11782 43.6372C-0.0591153 43.7833 -0.0364313 44.0472 0.183604 44.4288C0.403638 44.8094 0.697396 45.191 1.06488 45.5716C1.43122 45.9521 1.81345 46.2749 2.20929 46.5399C2.60626 46.8038 2.87733 46.8763 3.02364 46.7596C5.57786 46.0552 7.98577 45.7766 10.2462 45.9238C12.5067 46.0699 14.6946 46.4584 16.8087 47.0892C18.9229 47.7189 20.9848 48.4958 22.9958 49.42C25.0067 50.343 27.0551 51.2298 29.1397 52.0803C31.2244 52.9297 33.3816 53.6489 35.6138 54.2356C37.8447 54.8211 40.2084 55.0703 42.7036 54.983C44.8461 54.9536 46.8662 54.6523 48.7591 54.0815C50.6533 53.5096 52.113 52.5786 53.1417 51.2887C53.1995 51.1131 53.2517 50.7824 53.2959 50.2988C53.339 49.8152 53.3617 49.3464 53.3617 48.8922C53.3617 48.4381 53.3322 48.0485 53.2733 47.7279C53.2143 47.404 53.1122 47.301 52.9648 47.4188Z" fill="#D13763"/>
<path d="M78.6394 17.1865C78.8742 17.4946 79.1305 17.7652 79.4095 17.9997C79.6886 18.2353 79.9449 18.3666 80.1808 18.3961C80.3271 17.8094 80.5471 17.2239 80.8409 16.6372C81.1347 16.0506 81.4364 15.4571 81.7437 14.8557C82.0522 14.2555 82.346 13.6688 82.625 13.0969C82.904 12.5249 83.1161 11.9609 83.2636 11.4037C83.2636 11.227 83.1161 10.9133 82.8235 10.458C82.5297 10.005 82.1691 9.55654 81.7437 9.11711C81.3184 8.67768 80.8851 8.29601 80.4451 7.97324C80.005 7.65159 79.6523 7.50436 79.388 7.53268C79.3585 8.17823 79.2632 8.85889 79.1022 9.57806C78.94 10.2972 78.7642 11.0073 78.5736 11.7118C78.382 12.4151 78.213 13.0901 78.0667 13.7345C77.9192 14.3789 77.8319 14.9509 77.8024 15.4492C77.8024 15.6848 77.8829 15.9554 78.0451 16.2635C78.2062 16.5704 78.4035 16.8785 78.6394 17.1865Z" fill="#D13763"/>
<path d="M96.298 16.9C96.915 16.5489 97.5014 16.2341 98.0594 15.9543C98.6174 15.6768 99.1823 15.3767 99.755 15.0539C100.328 14.7312 100.907 14.3869 101.495 14.0199C102.082 13.6541 102.713 13.2067 103.389 12.679C103.476 12.5623 103.499 12.2905 103.455 11.8647C103.411 11.4411 103.337 11.0005 103.235 10.5464C103.132 10.0922 103.007 9.70378 102.86 9.381C102.713 9.05823 102.596 8.94044 102.508 9.02878L95.7252 16.285C95.5789 16.5195 95.5857 16.7176 95.7479 16.8785C95.9101 17.0393 96.0938 17.0472 96.298 16.9Z" fill="#D13763"/>
<path d="M153.33 17.9997C152.948 17.6769 152.523 17.3836 152.053 17.122C151.582 16.8581 151.186 16.6531 150.863 16.5059C150.188 17.0925 149.616 17.635 149.146 18.1333C148.676 18.6317 148.265 19.1221 147.913 19.6057C147.56 20.0893 147.222 20.5683 146.9 21.0349C146.577 21.5049 146.239 21.9885 145.887 22.4869C144.742 23.9818 143.692 25.47 142.738 26.9502C141.784 28.4305 140.837 29.9186 139.898 31.4136C139.134 31.9414 138.496 32.6968 137.982 33.6787C137.763 34.0977 137.6 34.5213 137.474 34.9494C137.11 35.3662 136.742 35.7626 136.374 36.1193C135.405 37.0582 134.458 37.8125 133.534 38.3844C132.609 38.9564 131.728 39.3369 130.891 39.5272C130.055 39.7186 129.313 39.7401 128.667 39.5929C128.138 39.4762 127.698 39.2565 127.347 38.9337C126.994 38.6121 126.715 38.2304 126.51 37.7898C126.303 37.3504 126.157 36.8815 126.07 36.3832C125.981 35.886 125.952 35.3866 125.981 34.8894C128.564 34.1861 130.927 33.0501 133.071 31.4804C135.215 29.913 136.947 27.9412 138.268 25.5663C138.796 24.7463 139.112 23.9762 139.215 23.257C139.317 22.5401 139.251 21.9093 139.016 21.3668C138.782 20.8243 138.407 20.3928 137.894 20.0689C137.38 19.7472 136.771 19.5853 136.066 19.5853C134.98 19.5581 133.893 19.7325 132.807 20.113C131.72 20.4947 130.694 20.993 129.724 21.608C128.755 22.2241 127.874 22.8912 127.082 23.6103C126.29 24.3295 125.658 24.9954 125.188 25.6116C123.72 27.5459 122.656 29.3422 121.996 30.998C121.903 31.2313 121.833 31.4657 121.755 31.699C121.563 32.0014 121.39 32.2993 121.181 32.6039C120.037 34.305 118.87 35.6674 117.68 36.6935C116.491 37.7208 115.47 38.4388 114.62 38.8488C114.297 38.996 114.032 39.0685 113.827 39.0685C113.621 39.0685 113.467 39.0243 113.364 38.936C113.261 38.8488 113.195 38.7457 113.166 38.6291C113.136 38.5124 113.123 38.4082 113.123 38.321C113.21 37.0888 113.401 35.9834 113.694 35.0004C113.988 34.0185 114.369 32.9935 114.84 31.9221C115.309 30.853 115.853 29.6355 116.47 28.2719C117.086 26.9095 117.76 25.231 118.495 23.2366C118.612 22.915 118.597 22.5503 118.451 22.138C118.304 21.7269 118.092 21.3396 117.813 20.9726C117.534 20.6057 117.21 20.2988 116.844 20.0485C116.477 19.8004 116.132 19.6747 115.808 19.6747C115.016 19.7336 114.238 19.925 113.474 20.2467C112.711 20.5695 111.962 20.9874 111.229 21.5004C110.495 22.0135 109.776 22.5922 109.07 23.2366C108.366 23.8822 107.706 24.5424 107.089 25.2163C107.265 24.8935 107.426 24.5855 107.573 24.2933C107.719 24.0011 107.837 23.693 107.926 23.3702C108.072 22.9014 108.013 22.4178 107.749 21.9194C107.486 21.4211 107.133 20.9817 106.693 20.6C106.252 20.2195 105.79 19.933 105.305 19.7427C104.82 19.5524 104.431 19.5298 104.138 19.6759C103.638 21.3475 103.066 23.0044 102.42 24.6455C101.844 26.1099 101.301 27.5811 100.771 29.0568C100.476 29.5891 100.166 30.1361 99.823 30.7148C99.442 31.3592 99.0155 32.0195 98.5459 32.6934C97.6068 34.0422 96.653 35.185 95.6843 36.1239C94.7146 37.0616 93.7675 37.817 92.8432 38.3878C91.9188 38.9598 91.0375 39.3414 90.2005 39.5317C89.3646 39.722 88.6228 39.7446 87.9775 39.5974C87.4489 39.4796 87.0077 39.261 86.6561 38.9382C86.3034 38.6155 86.0244 38.2338 85.8191 37.7944C85.6138 37.3549 85.4663 36.8861 85.379 36.3878C85.2905 35.8894 85.261 35.3911 85.2905 34.8917C87.8731 34.1883 90.2379 33.0524 92.3804 31.4838C94.5241 29.9164 96.256 27.9446 97.5773 25.5696C98.1059 24.7486 98.4212 23.9796 98.5244 23.2604C98.6265 22.5423 98.5607 21.9127 98.3259 21.3702C98.0911 20.8277 97.7168 20.395 97.203 20.0723C96.6893 19.7495 96.0802 19.5887 95.3758 19.5887C94.2893 19.5592 93.2027 19.7359 92.1162 20.1164C91.0296 20.4981 90.0031 20.9964 89.0334 21.6114C88.0648 22.2275 87.1846 22.8946 86.3918 23.6126C85.599 24.3306 84.9673 24.9977 84.4977 25.6127C83.0289 27.5482 81.9651 29.3444 81.305 31.0002C81.2743 31.0784 81.2539 31.1565 81.2244 31.2347C81.0044 31.5416 80.7878 31.8462 80.5564 32.1656C79.8362 33.1623 79.074 34.1159 78.2664 35.0242C77.4589 35.9336 76.5992 36.7468 75.6895 37.4648C74.7799 38.184 73.7966 38.6891 72.7395 38.9813H72.2552C71.7266 38.953 71.4987 38.6075 71.5724 37.9484C71.645 37.2893 71.8809 36.4466 72.2767 35.4194C72.6737 34.3945 73.1943 33.2653 73.8408 32.0342C74.4861 30.802 75.1247 29.6083 75.7564 28.4497C76.3871 27.2923 76.9734 26.2582 77.5179 25.3499C78.06 24.4416 78.4207 23.7814 78.5965 23.3702C78.8018 22.9014 78.795 22.4178 78.5749 21.9194C78.3549 21.4211 78.0464 20.9817 77.6494 20.6C77.2536 20.2195 76.8135 19.9341 76.3281 19.7427C75.8438 19.5524 75.4547 19.5298 75.161 19.677C74.7504 20.762 74.2071 22.0293 73.5323 23.4801C72.8563 24.932 72.1667 26.4123 71.4624 27.922C71.2253 28.4316 70.9996 28.9299 70.7728 29.4316C70.335 30.161 69.8745 30.93 69.3709 31.7704C68.7403 32.8259 68.0507 33.8373 67.3021 34.8045C66.5524 35.7716 65.7528 36.6369 64.901 37.3991C64.0492 38.1624 63.1249 38.6902 62.1268 38.9813H61.5529C61.0243 38.9541 60.7612 38.6075 60.7612 37.9484C60.7612 37.2881 60.9075 36.4455 61.2013 35.4206C61.4939 34.3945 61.8977 33.2653 62.4126 32.0342C62.9252 30.8032 63.439 29.6083 63.954 28.4509C64.4666 27.2923 64.9441 26.2594 65.3853 25.3499C65.8254 24.4416 66.118 23.7825 66.2655 23.3714C66.4118 22.9025 66.3539 22.4189 66.0897 21.9194C65.8254 21.4223 65.4727 20.9817 65.0326 20.6C64.5925 20.2195 64.1218 19.9341 63.6228 19.7427C63.1237 19.5524 62.7268 19.5309 62.4341 19.677C62.1109 20.9387 61.6334 22.4189 61.0028 24.1189C60.371 25.8188 59.7472 27.5358 59.1313 29.264C58.6028 30.1429 58.0221 31.0886 57.3915 32.0999C56.7597 33.1113 56.0849 34.0796 55.3658 35.0026C54.6456 35.9257 53.8755 36.7468 53.0532 37.4648C52.2309 38.184 51.336 38.6902 50.3674 38.9824H49.8388C49.3103 38.9552 49.046 38.6087 49.046 37.9495C49.046 37.2893 49.1923 36.4466 49.4861 35.4217C49.7799 34.3956 50.1757 33.2664 50.6759 32.0354C51.1749 30.8043 51.6887 29.6094 52.2173 28.452C52.7458 27.2934 53.2221 26.2605 53.6486 25.3511C54.0739 24.4428 54.3598 23.7836 54.5072 23.3725C54.6535 22.9036 54.5957 22.42 54.3303 21.9206C54.0671 21.4234 53.7144 20.9828 53.2743 20.6012C52.8331 20.2206 52.3715 19.9352 51.8861 19.7438C51.4018 19.5536 51.0127 19.532 50.7201 19.6781C50.4252 20.7631 50.0214 22.0304 49.5088 23.4824C48.995 24.9332 48.4585 26.4145 47.9016 27.9242C47.3425 29.4339 46.8287 30.9074 46.3602 32.3434C45.8895 33.7795 45.5516 35.0253 45.3463 36.0808C45.2 36.8442 45.141 37.5622 45.1705 38.2361C45.2 38.9111 45.3315 39.5113 45.5674 40.0391C45.8011 40.5669 46.1323 40.9916 46.5576 41.3143C46.9829 41.6371 47.5047 41.8127 48.1217 41.8421C48.6502 41.8421 49.1413 41.7764 49.5961 41.6439C50.0509 41.5125 50.4774 41.3517 50.8732 41.1603C51.2702 40.97 51.6297 40.7594 51.953 40.5227C52.2751 40.2882 52.5394 40.0833 52.7458 39.9066C53.6849 39.1444 54.5356 38.287 55.3 37.3346C56.0633 36.3821 56.7824 35.3922 57.4573 34.3661C57.2815 34.9811 57.1499 35.5531 57.0614 36.0808C56.914 36.8442 56.8629 37.5622 56.9072 38.2361C56.9514 38.9111 57.083 39.5113 57.303 40.0391C57.5242 40.5669 57.8463 40.9916 58.2727 41.3143C58.6981 41.6371 59.2334 41.8127 59.8799 41.8421C60.4084 41.8421 60.8996 41.7764 61.3555 41.6439C61.8103 41.5125 62.2356 41.3517 62.6326 41.1603C63.0285 40.97 63.388 40.7594 63.7112 40.5227C64.0345 40.2882 64.2988 40.0833 64.504 39.9066C65.3252 39.2327 66.0738 38.4852 66.7498 37.6641C67.2624 37.0412 67.7422 36.3844 68.222 35.7263C68.1868 35.8441 68.146 35.9676 68.1142 36.0808C67.8794 36.843 67.7467 37.5611 67.7172 38.2361C67.6889 38.9099 67.7615 39.5113 67.9384 40.038C68.1142 40.5657 68.3932 40.9916 68.7743 41.3143C69.1554 41.6371 69.6556 41.8115 70.2715 41.841C70.7705 41.841 71.2627 41.7753 71.747 41.6439C72.2314 41.5114 72.6794 41.3506 73.0911 41.1603C73.5017 40.97 73.868 40.7571 74.1913 40.5227C74.5145 40.2882 74.7924 40.0821 75.0283 39.9066C76.8192 38.5294 78.3606 37.0265 79.6524 35.4002C79.9314 35.0491 80.2036 34.6651 80.4793 34.3005C80.4169 34.8645 80.3806 35.4285 80.3999 35.9925C80.4883 37.8102 81.0895 39.2474 82.2055 40.303C83.3204 41.3585 84.8765 41.8851 86.8739 41.8851C87.2255 41.8851 87.6803 41.8783 88.2395 41.8636C88.7964 41.8478 89.4281 41.7606 90.1324 41.5997C90.8368 41.4389 91.5853 41.1603 92.3782 40.7639C93.171 40.3687 93.9933 39.7899 94.845 39.0266C95.6957 38.2644 96.467 37.4659 97.1565 36.6301C97.8461 35.7943 98.4779 34.9596 99.0507 34.1238C99.104 34.0468 99.1505 33.9732 99.2026 33.8961C99.1391 34.1181 99.0677 34.3412 99.0064 34.5621C98.5505 36.219 98.2794 37.9122 98.1921 39.6416C98.2215 39.876 98.3974 40.1399 98.7206 40.4332C99.0427 40.7265 99.4023 40.9825 99.7992 41.2022C100.195 41.4219 100.555 41.576 100.878 41.6643C101.201 41.7515 101.362 41.6937 101.362 41.4887C101.508 39.5532 101.832 37.714 102.332 35.9687C102.83 34.2257 103.447 32.5031 104.181 30.802C105.12 29.6581 106.031 28.6185 106.912 27.6796C107.792 26.7418 108.805 25.7599 109.95 24.7338C110.978 23.8538 111.741 23.3193 112.24 23.1279C112.739 22.9376 113.048 22.9897 113.165 23.2819C113.283 23.5752 113.253 24.0373 113.077 24.6681C112.9 25.299 112.651 25.9955 112.329 26.7577C111.829 27.9593 111.374 29.0522 110.963 30.0342C110.551 31.0161 110.207 31.9244 109.928 32.7602C109.649 33.596 109.422 34.3888 109.246 35.1352C109.069 35.8826 108.966 36.638 108.937 37.3991C108.908 38.1624 108.995 38.8216 109.202 39.3788C109.407 39.936 109.686 40.3902 110.039 40.7413C110.39 41.0946 110.809 41.3574 111.293 41.5329C111.778 41.7096 112.27 41.7968 112.769 41.7968C113.65 41.7968 114.56 41.4819 115.499 40.8523C116.438 40.2214 117.327 39.466 118.163 38.5872C119 37.7072 119.771 36.7909 120.476 35.8385C120.712 35.5191 120.907 35.2427 121.111 34.9573C121.093 35.3016 121.08 35.6459 121.092 35.9925C121.179 37.8114 121.781 39.2474 122.897 40.303C124.012 41.3596 125.568 41.8863 127.566 41.8863C127.917 41.8863 128.372 41.8783 128.93 41.8625C129.488 41.8478 130.12 41.7594 130.824 41.5997C131.528 41.4378 132.277 41.1603 133.07 40.765C133.863 40.3687 134.685 39.7899 135.537 39.0277C136.159 38.4694 136.725 37.885 137.262 37.287C137.311 37.7479 137.398 38.1998 137.562 38.6313C137.798 39.2474 138.165 39.7967 138.664 40.2803C139.163 40.7639 139.793 41.1592 140.557 41.4672C141.32 41.7753 142.231 41.9735 143.288 42.0607C144.286 42.1196 145.218 41.9871 146.084 41.6654C146.95 41.3426 147.699 40.8738 148.331 40.2588C148.961 39.6427 149.438 38.8952 149.762 38.0152C150.084 37.1375 150.23 36.168 150.202 35.1136C150.143 34.0581 150.069 32.9958 149.982 31.9244C149.893 30.8553 149.856 29.7918 149.872 28.7374C149.886 27.6807 150.018 26.6478 150.268 25.6376C150.517 24.6262 150.951 23.6522 151.568 22.7134C151.832 22.3328 152.036 22.0248 152.183 21.7892C152.33 21.5548 152.477 21.343 152.623 21.1516C152.771 20.9613 152.939 20.7631 153.13 20.5581C153.321 20.3531 153.593 20.0893 153.945 19.7665C154.239 19.532 154.304 19.2614 154.143 18.9533C153.981 18.6373 153.71 18.3225 153.33 17.9997ZM126.201 33.3027C126.436 32.3649 126.847 31.2868 127.434 30.0704C128.022 28.854 128.741 27.6739 129.592 26.5301C130.443 25.3873 131.413 24.3759 132.498 23.496C133.585 22.6171 134.745 22.0599 135.978 21.8254C136.799 21.6782 137.314 21.9059 137.519 22.5072C137.725 23.1075 137.621 23.8335 137.211 24.6829C136.037 26.9117 134.496 28.7668 132.587 30.2459C130.678 31.7284 128.535 32.8044 126.157 33.4782C126.156 33.4205 126.172 33.3616 126.201 33.3027ZM85.5094 33.3038C85.7442 32.3649 86.1548 31.2879 86.7423 30.0715C87.3298 28.8552 88.0489 27.6739 88.9007 26.5312C89.7513 25.3873 90.7211 24.3759 91.8076 23.4971C92.8931 22.6171 94.0534 22.0599 95.2862 21.8243C96.1085 21.6782 96.6223 21.9059 96.8276 22.5072C97.0329 23.1086 96.9308 23.8346 96.5191 24.684C95.3452 26.9129 93.8038 28.7668 91.895 30.2471C89.9861 31.7273 87.8436 32.8055 85.4652 33.4794C85.4652 33.4205 85.4799 33.3627 85.5094 33.3038ZM146.041 33.083C146.172 34.0807 146.238 35.0332 146.238 35.9415C146.238 36.5282 146.172 37.0933 146.041 37.6347C145.908 38.1783 145.695 38.654 145.402 39.0651C145.108 39.4751 144.741 39.7911 144.301 40.0108C143.861 40.2294 143.332 40.312 142.715 40.2531C142.157 40.2237 141.592 40.0697 141.019 39.7911C140.447 39.5124 139.985 39.0798 139.632 38.4932C139.28 37.9654 139.119 37.4603 139.148 36.9767C139.176 36.4931 139.324 36.0604 139.588 35.6788C139.852 35.2982 140.205 34.9834 140.645 34.7342C141.085 34.4851 141.548 34.3016 142.032 34.1838C142.517 34.0672 143.008 34.0456 143.508 34.1181C144.007 34.1906 144.432 34.3752 144.785 34.6674C144.873 34.5802 144.866 34.3673 144.763 34.0298C144.659 33.6934 144.521 33.3265 144.345 32.9301C144.168 32.5348 143.984 32.1611 143.794 31.8089C143.603 31.4578 143.464 31.2233 143.375 31.1055C143.14 31.0183 142.92 30.9447 142.715 30.8858C142.51 30.8269 142.303 30.7975 142.098 30.7975C142.832 29.6253 143.625 28.3648 144.477 27.0159C145.328 25.6693 146.195 24.4654 147.075 23.4099C146.487 24.5538 146.121 25.675 145.974 26.7736C145.827 27.8733 145.768 28.9514 145.798 30.0058C145.827 31.0602 145.909 32.0875 146.041 33.083Z" fill="#D13763"/>
<path d="M177.66 18.9454C177.498 18.6384 177.227 18.3225 176.846 17.9997C176.463 17.6769 176.038 17.3836 175.569 17.122C175.098 16.8581 174.702 16.6531 174.379 16.5059C173.704 17.0925 173.131 17.635 172.662 18.1333C172.192 18.6317 171.78 19.122 171.429 19.6056C171.076 20.0892 170.738 20.5683 170.416 21.0349C170.093 21.5049 169.755 21.9885 169.403 22.4868C168.257 23.9818 167.207 25.47 166.253 26.9502C165.299 28.4305 164.352 29.9186 163.413 31.4136C162.65 31.9414 162.011 32.6968 161.498 33.6787C160.984 34.6606 160.726 35.6652 160.726 36.6901C160.726 37.3651 160.844 38.0095 161.079 38.6257C161.315 39.2418 161.681 39.791 162.18 40.2746C162.679 40.7582 163.31 41.1535 164.073 41.4616C164.837 41.7696 165.747 41.9678 166.805 42.055C167.803 42.1139 168.735 41.9814 169.6 41.6598C170.467 41.337 171.215 40.8681 171.847 40.2531C172.478 39.637 172.954 38.8895 173.279 38.0095C173.601 37.1318 173.747 36.1624 173.719 35.108C173.66 34.0524 173.586 32.9901 173.499 31.9187C173.41 30.8496 173.373 29.7861 173.389 28.7317C173.402 27.6751 173.535 26.6422 173.784 25.6319C174.034 24.6206 174.467 23.6466 175.084 22.7077C175.348 22.3272 175.553 22.0191 175.7 21.7835C175.846 21.5491 175.994 21.3373 176.14 21.1459C176.288 20.9556 176.455 20.7574 176.647 20.5525C176.838 20.3475 177.11 20.0836 177.462 19.7608C177.755 19.5241 177.821 19.2534 177.66 18.9454ZM169.557 33.083C169.689 34.0807 169.755 35.0332 169.755 35.9415C169.755 36.5282 169.689 37.0933 169.557 37.6347C169.425 38.1783 169.211 38.654 168.919 39.0651C168.625 39.4751 168.257 39.791 167.817 40.0108C167.377 40.2293 166.849 40.312 166.232 40.2531C165.674 40.2237 165.109 40.0697 164.536 39.791C163.963 39.5124 163.502 39.0798 163.149 38.4931C162.796 37.9654 162.635 37.4603 162.665 36.9767C162.693 36.4931 162.841 36.0604 163.105 35.6788C163.369 35.2982 163.722 34.9834 164.162 34.7342C164.602 34.4851 165.065 34.3016 165.549 34.1838C166.033 34.0672 166.524 34.0456 167.025 34.1181C167.524 34.1906 167.949 34.3752 168.302 34.6674C168.39 34.5802 168.382 34.3673 168.28 34.0298C168.176 33.6934 168.037 33.3265 167.862 32.9301C167.685 32.5348 167.501 32.1611 167.31 31.8088C167.12 31.4578 166.98 31.2233 166.892 31.1055C166.657 31.0183 166.437 30.9447 166.232 30.8858C166.027 30.8269 165.82 30.7975 165.615 30.7975C166.349 29.6253 167.141 28.3648 167.993 27.0159C168.845 25.6693 169.712 24.4654 170.592 23.4099C170.004 24.5537 169.638 25.675 169.49 26.7735C169.344 27.8732 169.285 28.9514 169.315 30.0058C169.344 31.0602 169.425 32.0875 169.557 33.083Z" fill="#D13763"/>
<path d="M194.856 23.6715C194.827 23.2026 194.746 22.7337 194.615 22.2649C194.482 21.796 194.269 21.3702 193.976 20.9896C193.683 20.608 193.293 20.2852 192.809 20.0213C192.325 19.7574 191.729 19.5819 191.025 19.4935C189.733 19.3474 188.471 19.4867 187.238 19.9114C186.005 20.3373 184.838 20.9602 183.737 21.7801C182.635 22.6012 181.637 23.5684 180.742 24.6829C179.846 25.7973 179.105 26.9695 178.518 28.2006C177.931 29.4316 177.527 30.6786 177.307 31.938C177.087 33.1974 177.108 34.3865 177.373 35.4998C177.813 37.5814 178.679 39.1274 179.971 40.1399C181.263 41.1524 182.745 41.6733 184.42 41.7005C185.976 41.7005 187.488 41.2101 188.955 40.2271C190.423 39.2452 191.708 37.9926 192.809 36.467C193.909 34.9437 194.746 33.2642 195.319 31.4317C195.892 29.6004 196.075 27.8631 195.869 26.2209C195.723 25.1676 195.385 24.3182 194.856 23.6715ZM193.689 30.3784C193.146 31.8598 192.427 33.2449 191.532 34.5349C190.636 35.8249 189.623 36.8951 188.492 37.7445C187.363 38.5962 186.225 38.9915 185.08 38.9326C184.111 38.8737 183.348 38.5792 182.79 38.0526C182.232 37.5248 181.857 36.843 181.667 36.0083C181.475 35.1725 181.447 34.2348 181.578 33.194C181.711 32.1531 181.982 31.0897 182.394 30.0058C182.804 28.9209 183.325 27.8585 183.957 26.8166C184.587 25.7769 185.3 24.8459 186.092 24.0248C186.826 23.3204 187.634 22.7428 188.515 22.2875C189.396 21.8334 190.188 21.5774 190.894 21.5174C191.744 21.4596 192.332 21.5774 192.655 21.8696C192.977 22.1629 193.168 22.5152 193.228 22.9251C192.875 22.9251 192.522 23.0135 192.171 23.189C192.082 23.2479 191.92 23.3431 191.686 23.4744C191.45 23.6069 191.209 23.7757 190.959 23.9807C190.71 24.1857 190.482 24.4201 190.277 24.684C190.071 24.9467 189.953 25.2118 189.924 25.4756C189.924 25.7112 189.917 25.9887 189.902 26.3115C189.887 26.6342 189.894 26.9344 189.924 27.213C189.953 27.4916 189.991 27.7407 190.034 27.9605C190.078 28.1802 190.159 28.3059 190.277 28.3342C190.306 28.0409 190.452 27.7045 190.717 27.3228C190.981 26.9423 191.289 26.5901 191.642 26.2662C191.994 25.9434 192.368 25.6795 192.765 25.4745C193.161 25.2695 193.52 25.1959 193.844 25.2548C194.254 25.3431 194.461 25.6942 194.461 26.3103C194.489 27.5414 194.233 28.8993 193.689 30.3784Z" fill="#D13763"/>
<path d="M249.773 26.2231C249.627 25.1676 249.289 24.3182 248.761 23.6726C248.731 23.2037 248.651 22.7349 248.519 22.266C248.386 21.7971 248.173 21.3713 247.88 20.9907C247.587 20.6091 247.198 20.2863 246.713 20.0224C246.229 19.7585 245.634 19.583 244.929 19.4947C243.637 19.3486 242.375 19.4879 241.142 19.9126C239.909 20.3384 238.742 20.9613 237.641 21.7813C236.54 22.6024 235.541 23.5696 234.647 24.684C233.751 25.7984 233.009 26.9706 232.422 28.2017C232 29.0851 231.678 29.9753 231.446 30.8722C231.108 31.443 230.749 32.0172 230.352 32.5982C229.207 34.2993 228.047 35.6618 226.873 36.6879C225.699 37.7151 224.655 38.4331 223.746 38.8431C223.423 38.9903 223.166 39.0628 222.976 39.0628C222.784 39.0628 222.638 39.0186 222.536 38.9303C222.432 38.8431 222.365 38.74 222.337 38.6234C222.308 38.5067 222.293 38.4025 222.293 38.3153C222.381 37.0831 222.572 35.9778 222.866 34.9947C223.158 34.0128 223.54 32.9878 224.01 31.9164C224.48 30.8473 225.016 29.6298 225.618 28.2662C226.219 26.9038 226.887 25.2253 227.621 23.2309C227.769 22.9093 227.769 22.5446 227.621 22.1324C227.475 21.7212 227.262 21.3339 226.983 20.967C226.704 20.6 226.38 20.2931 226.014 20.0428C225.647 19.7948 225.317 19.6691 225.023 19.6691C224.201 19.728 223.386 19.9262 222.58 20.2637C221.771 20.6 220.986 21.0327 220.223 21.5604C219.46 22.0882 218.726 22.6896 218.021 23.3634C217.317 24.0384 216.656 24.727 216.039 25.4303C216.216 25.0498 216.392 24.6829 216.567 24.3306C216.744 23.9784 216.905 23.6126 217.052 23.2298C217.17 22.9081 217.155 22.5435 217.009 22.1312C216.861 21.7201 216.648 21.3328 216.37 20.9658C216.09 20.5989 215.768 20.292 215.4 20.0417C215.033 19.7936 214.689 19.6679 214.366 19.6679C213.573 19.7268 212.795 19.9182 212.032 20.2399C211.268 20.5626 210.519 20.9806 209.786 21.4936C209.051 22.0066 208.332 22.5854 207.628 23.2298C206.923 23.8753 206.262 24.5356 205.646 25.2095C205.822 24.8867 205.983 24.5787 206.13 24.2865C206.277 23.9943 206.395 23.6862 206.483 23.3634C206.63 22.8946 206.571 22.411 206.306 21.9126C206.042 21.4143 205.69 20.9749 205.249 20.5932C204.809 20.2127 204.346 19.9262 203.862 19.7359C203.378 19.5456 202.989 19.523 202.695 19.6691C202.196 21.3407 201.623 22.9976 200.978 24.6387C200.331 26.2809 199.715 27.9299 199.128 29.5857C198.54 31.2426 198.02 32.8995 197.565 34.5553C197.109 36.2122 196.838 37.9054 196.75 39.6348C196.779 39.8692 196.956 40.1331 197.278 40.4264C197.601 40.7197 197.961 40.9757 198.358 41.1954C198.754 41.4151 199.113 41.5691 199.436 41.6575C199.76 41.7447 199.921 41.6869 199.921 41.4819C200.067 39.5464 200.39 37.7072 200.889 35.9619C201.388 34.2189 202.005 32.4963 202.739 30.7952C203.678 29.6513 204.589 28.6117 205.469 27.6728C206.351 26.735 207.363 25.7531 208.509 24.727C209.302 24.0532 209.932 23.5911 210.402 23.3419C210.871 23.0928 211.224 22.9829 211.459 23.0112C211.812 23.0996 211.9 23.5175 211.723 24.2638C211.547 25.0113 211.239 25.957 210.799 27.0997C209.947 29.2108 209.199 31.2992 208.552 33.3661C207.907 35.433 207.539 37.5225 207.452 39.6336C207.48 39.8681 207.657 40.1319 207.98 40.4253C208.302 40.7186 208.663 40.9746 209.059 41.1943C209.455 41.414 209.814 41.568 210.138 41.6564C210.461 41.7436 210.622 41.6858 210.622 41.4808C210.71 40.1319 210.901 38.8193 211.195 37.5441C211.488 36.2688 211.84 35.0151 212.252 33.784C212.457 33.2279 212.662 32.6922 212.869 32.1792C213.074 31.6661 213.294 31.161 213.529 30.6627C214.381 29.5483 215.246 28.529 216.127 27.606C217.009 26.6829 218.021 25.7225 219.166 24.7259C220.193 23.8459 220.95 23.3113 221.434 23.1199C221.919 22.9297 222.219 22.9818 222.337 23.274C222.454 23.5673 222.426 24.0294 222.249 24.6602C222.073 25.291 221.823 25.9876 221.5 26.7498C221.001 27.9514 220.546 29.0443 220.136 30.0262C219.724 31.0081 219.379 31.9164 219.1 32.7523C218.821 33.5881 218.593 34.3809 218.417 35.1272C218.241 35.8747 218.138 36.6301 218.109 37.3912C218.079 38.1545 218.168 38.8137 218.373 39.3709C218.578 39.9281 218.857 40.3822 219.21 40.7333C219.563 41.0867 219.981 41.3494 220.466 41.525C220.95 41.7017 221.441 41.7889 221.94 41.7889C222.851 41.7889 223.768 41.474 224.693 40.8443C225.618 40.2135 226.505 39.4581 227.357 38.5792C228.209 37.6992 228.979 36.783 229.67 35.8305C230.237 35.0468 230.686 34.3933 231.065 33.818C231.078 34.3967 231.148 34.9573 231.277 35.501C231.717 37.5826 232.583 39.1285 233.875 40.141C235.167 41.1535 236.65 41.6745 238.324 41.7017C239.88 41.7017 241.392 41.2113 242.859 40.2282C244.327 39.2463 245.612 37.9937 246.713 36.4682C247.813 34.9449 248.651 33.2653 249.223 31.4328C249.796 29.6026 249.979 27.8642 249.773 26.2231ZM247.593 30.3784C247.05 31.8598 246.331 33.2449 245.436 34.5349C244.54 35.8249 243.527 36.8951 242.397 37.7445C241.267 38.5962 240.129 38.9915 238.984 38.9326C238.015 38.8737 237.252 38.5792 236.694 38.0526C236.136 37.5259 235.761 36.843 235.571 36.0083C235.379 35.1725 235.351 34.2348 235.482 33.194C235.615 32.1531 235.886 31.0897 236.298 30.0058C236.709 28.9208 237.229 27.8585 237.861 26.8166C238.491 25.7769 239.204 24.8459 239.997 24.0248C240.73 23.3204 241.538 22.7428 242.419 22.2875C243.3 21.8334 244.092 21.5774 244.798 21.5174C245.648 21.4596 246.236 21.5774 246.559 21.8696C246.881 22.1629 247.072 22.5152 247.132 22.9251C246.779 22.9251 246.426 23.0135 246.075 23.189C245.986 23.2479 245.824 23.3431 245.59 23.4744C245.355 23.6069 245.113 23.7757 244.863 23.9807C244.614 24.1857 244.386 24.4201 244.181 24.684C243.975 24.9467 243.857 25.2118 243.828 25.4756C243.828 25.7112 243.821 25.9887 243.806 26.3115C243.792 26.6342 243.798 26.9344 243.828 27.213C243.857 27.4916 243.895 27.7407 243.938 27.9604C243.982 28.1802 244.063 28.3059 244.181 28.3342C244.21 28.0409 244.356 27.7045 244.621 27.3228C244.885 26.9423 245.193 26.5901 245.546 26.2662C245.898 25.9434 246.272 25.6795 246.669 25.4745C247.065 25.2695 247.424 25.1959 247.748 25.2548C248.158 25.3431 248.365 25.6942 248.365 26.3103C248.393 27.5414 248.137 28.8993 247.593 30.3784Z" fill="#D13763"/>
<path d="M265.914 18.9454C265.752 18.6384 265.481 18.3225 265.1 17.9997C264.718 17.6769 264.293 17.3836 263.823 17.122C263.352 16.8581 262.956 16.6531 262.633 16.5059C261.958 17.0925 261.386 17.635 260.916 18.1333C260.446 18.6317 260.035 19.122 259.683 19.6056C259.33 20.0892 258.992 20.5683 258.67 21.0349C258.347 21.5049 258.009 21.9885 257.657 22.4868C256.512 23.9818 255.462 25.47 254.508 26.9502C253.554 28.4305 252.607 29.9186 251.668 31.4136C250.904 31.9414 250.266 32.6968 249.752 33.6787C249.238 34.6606 248.981 35.6652 248.981 36.6901C248.981 37.3651 249.099 38.0095 249.334 38.6257C249.569 39.2418 249.936 39.791 250.435 40.2746C250.934 40.7582 251.565 41.1535 252.328 41.4616C253.091 41.7696 254.002 41.9678 255.059 42.055C256.057 42.1139 256.989 41.9814 257.855 41.6598C258.721 41.337 259.47 40.8681 260.102 40.2531C260.732 39.637 261.209 38.8895 261.533 38.0095C261.855 37.1318 262.001 36.1624 261.973 35.108C261.914 34.0524 261.84 32.9901 261.753 31.9187C261.665 30.8496 261.627 29.7861 261.643 28.7317C261.657 27.6751 261.789 26.6422 262.039 25.6319C262.288 24.6206 262.722 23.6466 263.339 22.7077C263.603 22.3272 263.807 22.0191 263.955 21.7835C264.101 21.5491 264.248 21.3373 264.395 21.1459C264.542 20.9556 264.71 20.7574 264.902 20.5525C265.092 20.3475 265.364 20.0836 265.716 19.7608C266.01 19.5241 266.075 19.2534 265.914 18.9454ZM257.812 33.083C257.943 34.0807 258.009 35.0332 258.009 35.9415C258.009 36.5282 257.943 37.0933 257.812 37.6347C257.679 38.1783 257.466 38.654 257.173 39.0651C256.879 39.4751 256.512 39.791 256.072 40.0108C255.632 40.2293 255.103 40.312 254.486 40.2531C253.928 40.2237 253.363 40.0697 252.791 39.791C252.218 39.5124 251.756 39.0798 251.403 38.4931C251.051 37.9654 250.89 37.4603 250.919 36.9767C250.948 36.4931 251.095 36.0604 251.359 35.6788C251.623 35.2982 251.976 34.9834 252.416 34.7342C252.856 34.4851 253.319 34.3016 253.803 34.1838C254.288 34.0672 254.779 34.0456 255.279 34.1181C255.778 34.1906 256.203 34.3752 256.556 34.6674C256.645 34.5802 256.637 34.3673 256.535 34.0298C256.43 33.6934 256.292 33.3265 256.116 32.9301C255.939 32.5348 255.755 32.1611 255.565 31.8088C255.374 31.4578 255.235 31.2233 255.146 31.1055C254.912 31.0183 254.692 30.9447 254.486 30.8858C254.281 30.8269 254.074 30.7975 253.869 30.7975C254.603 29.6253 255.396 28.3648 256.248 27.0159C257.099 25.6693 257.966 24.4654 258.846 23.4099C258.259 24.5537 257.892 25.675 257.745 26.7735C257.598 27.8732 257.539 28.9514 257.569 30.0058C257.598 31.0602 257.679 32.0875 257.812 33.083Z" fill="#D13763"/>
</svg>
