<svg width="168" height="50" viewBox="0 0 168 50" fill="none" xmlns="http://www.w3.org/2000/svg">
<path d="M31.1247 30.4167C29.9847 32.8601 28.5897 35.2795 26.9431 37.676C25.2966 40.0737 23.4911 42.2067 21.5267 44.0785C19.5623 45.9515 17.4641 47.435 15.231 48.5301C12.9979 49.6253 10.7247 50.1064 8.41385 49.9804C5.97377 49.7902 4.0185 48.9024 2.54576 47.3147C1.07303 45.7281 0.240608 43.697 0.0507988 41.2215C-0.0761219 39.6361 0.0347908 37.8364 0.383537 35.8191C0.732283 33.8041 1.29371 31.6779 2.0701 29.4407C2.84649 27.2034 3.80468 24.9272 4.94468 22.6097C6.08582 20.2934 7.36761 18.0482 8.79347 15.8728C10.2193 13.7008 11.771 11.6457 13.4495 9.70854C15.1281 7.77485 16.8867 6.09204 18.7242 4.66468C20.5605 3.23618 22.4689 2.10209 24.4493 1.26011C26.4286 0.420417 28.4159 0 30.4123 0C31.9639 0 33.1748 0.214218 34.0473 0.642654C34.9174 1.06994 35.52 1.64157 35.8527 2.35525C36.1843 3.07008 36.2872 3.90404 36.1615 4.85599C36.0345 5.80794 35.7567 6.81603 35.329 7.87795C34.9014 8.94217 34.3709 10.0201 33.7374 11.1153C33.1039 12.2104 32.4385 13.2655 31.7421 14.2804C31.5832 14.4717 31.3694 14.686 31.1006 14.9242C30.8319 15.1625 30.5141 15.3515 30.1505 15.4947C29.7857 15.6379 29.3672 15.7032 28.8915 15.6849C28.4159 15.6688 27.8933 15.5039 27.3239 15.1854C27.8304 14.8051 28.393 14.2255 29.0105 13.4476C29.6279 12.6698 30.2374 11.8049 30.8399 10.853C31.4414 9.901 31.9719 8.93301 32.4316 7.94898C32.8901 6.96724 33.2148 6.07715 33.4058 5.28443C33.7214 4.07702 33.6905 3.2064 33.3098 2.6657C32.9301 2.12729 32.0428 1.85694 30.649 1.85694C29.2872 1.92109 27.8933 2.39649 26.4686 3.28659C25.0428 4.17553 23.6249 5.344 22.2162 6.78854C20.8063 8.23422 19.4365 9.84601 18.1056 11.6262C16.7758 13.4064 15.5477 15.2083 14.4237 17.0355C13.2986 18.8626 12.3015 20.6245 11.4302 22.3245C10.5589 24.0233 9.88658 25.4782 9.41092 26.6845C8.84149 28.0511 8.30179 29.4407 7.79525 30.8543C7.28871 32.2679 6.89308 33.7376 6.60837 35.2623C6.25848 36.8512 6.06867 38.329 6.0378 39.6933C6.00578 41.06 6.14071 42.2674 6.44143 43.3156C6.74215 44.3626 7.21782 45.2046 7.86729 45.8404C8.51561 46.4761 9.36404 46.8255 10.4091 46.8885C11.771 47.0134 13.1008 46.8381 14.3997 46.3639C15.6986 45.8885 16.9656 45.2069 18.2016 44.3179C19.4365 43.4313 20.6245 42.39 21.7645 41.2009C22.9045 40.0107 23.9816 38.7574 24.9959 37.44C26.009 36.1249 26.9351 34.7904 27.7744 33.4421C28.6137 32.0926 29.3672 30.8176 30.0315 29.6091C30.1264 29.451 30.2694 29.3639 30.4592 29.3479C30.649 29.3307 30.8159 29.3719 30.9577 29.467C31.1006 29.5621 31.1955 29.6892 31.2436 29.8473C31.2905 30.0043 31.2504 30.1944 31.1247 30.4167Z" fill="#D13763"/>
<path d="M43.572 19.4205C44.3324 19.5156 44.9739 19.7058 45.4964 19.991C46.019 20.2774 46.4386 20.6279 46.7553 21.0392C47.0721 21.4516 47.3019 21.9121 47.4448 22.4196C47.5878 22.9271 47.6747 23.4357 47.7067 23.942C48.2761 24.6408 48.6397 25.5607 48.7987 26.7028C49.0205 28.4807 48.8227 30.3594 48.2052 32.3435C47.5878 34.3264 46.6845 36.1444 45.4964 37.794C44.3084 39.4448 42.9226 40.8011 41.3389 41.8653C39.7553 42.9284 38.1236 43.4599 36.4462 43.4599C34.6396 43.429 33.0399 42.8642 31.6472 41.7691C30.2522 40.6751 29.318 39.0014 28.8435 36.747C28.5588 35.5419 28.5348 34.2566 28.7726 32.8911C29.0093 31.529 29.445 30.1795 30.0784 28.8461C30.7119 27.5138 31.5111 26.2446 32.4785 25.0383C33.4447 23.8332 34.5218 22.785 35.7087 21.8972C36.8967 21.0094 38.1556 20.3335 39.4866 19.873C40.8164 19.4125 42.1782 19.2624 43.572 19.4205ZM42.7648 28.9893C42.6379 28.9584 42.551 28.8221 42.5029 28.5838C42.4561 28.3455 42.416 28.0775 42.3852 27.7739C42.3531 27.4726 42.3451 27.1484 42.3611 26.7979C42.376 26.4485 42.3852 26.1483 42.3852 25.894C42.416 25.6088 42.5429 25.3224 42.7648 25.0372C42.9855 24.7519 43.2313 24.4976 43.5011 24.2754C43.7698 24.0543 44.0317 23.871 44.2855 23.7278C44.5382 23.5846 44.7132 23.4815 44.8081 23.4174C45.1877 23.2272 45.5685 23.1321 45.9481 23.1321C45.884 22.6876 45.6782 22.3073 45.3306 21.99C44.9819 21.6738 44.3484 21.5455 43.4302 21.6085C42.6699 21.6738 41.8146 21.9499 40.8644 22.4413C39.9142 22.9351 39.0429 23.5617 38.2505 24.3235C37.3964 25.2124 36.628 26.2194 35.9465 27.3454C35.265 28.4727 34.7036 29.6228 34.2599 30.7981C33.8163 31.9712 33.5236 33.1213 33.3806 34.2497C33.2389 35.3746 33.2697 36.3907 33.4755 37.2957C33.6814 38.2007 34.085 38.9384 34.6876 39.5089C35.289 40.0805 36.1134 40.3979 37.1585 40.4609C38.3934 40.525 39.6203 40.0966 40.8404 39.1756C42.0593 38.2557 43.1524 37.0987 44.1186 35.7011C45.0848 34.3047 45.86 32.8063 46.4466 31.2025C47.0332 29.601 47.3099 28.1324 47.279 26.799C47.279 26.1335 47.0561 25.752 46.6136 25.6569C46.2648 25.5928 45.8772 25.6729 45.4496 25.8952C45.0219 26.1163 44.6183 26.4027 44.2375 26.7521C43.8579 27.1014 43.5252 27.4829 43.2404 27.8942C42.9546 28.3066 42.7957 28.6708 42.7648 28.9893Z" fill="#D13763"/>
<path d="M73.7906 37.1044C73.0302 38.1354 72.199 39.1286 71.2956 40.0805C70.3935 41.0325 69.4353 41.8504 68.4222 42.532C67.408 43.2148 66.4258 43.5561 65.4756 43.5561C64.937 43.5561 64.4065 43.4611 63.8839 43.2709C63.3614 43.0807 62.9097 42.7955 62.5301 42.414C62.1505 42.0337 61.8486 41.5411 61.6268 40.9386C61.405 40.336 61.3101 39.6223 61.3421 38.7964C61.373 37.9716 61.485 37.1548 61.6748 36.3449C61.8646 35.535 62.1105 34.6793 62.4112 33.7743C62.7119 32.8704 63.0835 31.8864 63.5283 30.8233C63.9708 29.7603 64.4614 28.5781 65.0011 27.2767C65.3487 26.4508 65.6185 25.6993 65.8083 25.0154C65.9981 24.3326 66.0302 23.8332 65.9032 23.5147C65.7763 23.1986 65.4436 23.1424 64.9062 23.3475C64.3665 23.556 63.5432 24.1345 62.4352 25.0864C61.2003 26.1976 60.1072 27.2595 59.157 28.2756C58.2068 29.2917 57.2246 30.4167 56.2104 31.6539C55.4191 33.4948 54.7536 35.3597 54.2151 37.2476C53.6765 39.1355 53.3278 41.1276 53.17 43.2228C53.17 43.4439 52.995 43.508 52.6474 43.4129C52.2987 43.3179 51.9111 43.1506 51.4834 42.9112C51.0558 42.6741 50.667 42.3968 50.3194 42.0784C49.9707 41.7622 49.7809 41.4758 49.7488 41.2215C49.8438 39.3497 50.1365 37.5168 50.6281 35.7229C51.1187 33.9312 51.6812 32.1373 52.3147 30.3445C52.9482 28.5529 53.6136 26.7681 54.31 24.9902C55.0063 23.2123 55.6249 21.4195 56.1635 19.6107C56.4791 19.4526 56.8999 19.4767 57.4224 19.6829C57.945 19.8891 58.4435 20.1972 58.9192 20.6108C59.3937 21.0232 59.7744 21.4997 60.0592 22.0381C60.3439 22.5788 60.4079 23.1023 60.249 23.6098C60.1541 23.9592 60.0271 24.2926 59.8693 24.6087C59.7104 24.926 59.5366 25.2583 59.3468 25.6088C60.0123 24.8779 60.7246 24.1643 61.485 23.4666C62.2454 22.769 63.0206 22.1424 63.813 21.5856C64.6043 21.0312 65.4116 20.5775 66.236 20.2293C67.0592 19.8799 67.8985 19.6737 68.7538 19.6095C69.1025 19.6095 69.4742 19.7447 69.8709 20.0151C70.2666 20.2843 70.6153 20.6176 70.916 21.014C71.2167 21.4126 71.4466 21.8331 71.6055 22.2764C71.7633 22.7209 71.7782 23.1172 71.6524 23.4666C70.86 25.6248 70.1316 27.4417 69.4673 28.9171C68.8018 30.3926 68.2152 31.71 67.7087 32.8681C67.2022 34.0263 66.7894 35.1363 66.4738 36.1994C66.1571 37.2636 65.9513 38.4607 65.8563 39.7941C65.8563 39.8892 65.8712 40.0003 65.9032 40.1275C65.9352 40.2535 66.0061 40.3646 66.1171 40.4597C66.228 40.5559 66.3938 40.6029 66.6167 40.6029C66.8374 40.6029 67.1221 40.5239 67.472 40.3646C68.3902 39.9202 69.4913 39.1435 70.7731 38.0323C72.056 36.9223 73.3149 35.4468 74.551 33.6059C75.0255 32.9094 75.4612 32.2175 75.8579 31.5347C76.2536 30.852 76.6412 30.1944 77.0219 29.5587C77.1168 29.4006 77.2506 29.3124 77.4256 29.2963C77.5994 29.2814 77.7583 29.3204 77.9001 29.4155C78.043 29.5105 78.1379 29.6377 78.186 29.7969C78.2328 29.9562 78.1928 30.1475 78.067 30.3674L75.5961 34.5086C75.1524 35.2085 74.551 36.0734 73.7906 37.1044Z" fill="#D13763"/>
<path d="M77.4484 19.7539C77.2266 19.818 77.0368 19.818 76.8779 19.7539C76.7189 19.6897 76.6103 19.5878 76.5451 19.4446C76.4822 19.3014 76.4822 19.1433 76.5451 18.968C76.6092 18.7962 76.7361 18.6438 76.9259 18.5167C79.2379 17.0252 81.6128 15.7719 84.0529 14.7558C84.9711 12.8519 85.7395 11.0912 86.3569 9.47256C86.9744 7.8539 87.4569 6.37843 87.8056 5.04501C88.1224 4.88692 88.55 4.91212 89.0886 5.11718C89.6271 5.32338 90.1348 5.62466 90.6093 6.02102C91.085 6.41852 91.4646 6.88591 91.7493 7.42546C92.0352 7.96616 92.0821 8.48968 91.8923 8.99601C91.7653 9.34655 91.5515 9.85288 91.2508 10.5196C90.9489 11.1863 90.5773 11.9653 90.1348 12.8519C93.301 12.1554 96.5014 11.8691 99.7316 11.9951C99.8265 12.2494 99.8505 12.5358 99.8036 12.8519C99.7556 13.1693 99.6607 13.4637 99.5178 13.7329C99.376 14.0021 99.1931 14.2266 98.9712 14.3996C98.7494 14.5737 98.5276 14.6459 98.3069 14.6138C96.7221 14.5187 95.1625 14.5279 93.6268 14.6378C92.0901 14.7513 90.5144 14.9804 88.8988 15.3298C88.55 16.0595 88.1864 16.788 87.8056 17.5189C87.426 18.2498 87.0613 18.9635 86.7137 19.6611C86.4918 20.1056 86.079 20.9223 85.4776 22.1126C84.8762 23.3028 84.2027 24.6591 83.4583 26.1827C82.7139 27.7052 81.9776 29.3089 81.2492 30.9906C80.5208 32.6723 79.9263 34.2119 79.4677 35.6072C79.0081 37.0047 78.7462 38.1617 78.6833 39.0828C78.6205 40.0038 78.8892 40.4792 79.4917 40.509H80.0612C81.1383 40.1939 82.1445 39.6223 83.0787 38.7964C84.0129 37.9704 84.8762 37.0357 85.6686 35.9886C86.4598 34.9416 87.1962 33.8465 87.8777 32.7032C88.558 31.5611 89.1995 30.514 89.8021 29.5621C89.897 29.404 90.0307 29.3169 90.2057 29.3009C90.3795 29.2837 90.5384 29.3238 90.6814 29.4189C90.8231 29.5151 90.926 29.6423 90.9901 29.8004C91.053 29.9607 91.021 30.1509 90.8952 30.3708C90.2606 31.3549 89.6431 32.3549 89.0417 33.3699C88.4391 34.386 87.8136 35.37 87.1653 36.322C86.5147 37.2739 85.8184 38.1938 85.074 39.0828C84.3296 39.9694 83.5132 40.7793 82.627 41.509C82.4052 41.6992 82.1205 41.9214 81.7718 42.1758C81.423 42.4312 81.0354 42.6592 80.6077 42.8665C80.1801 43.0739 79.7204 43.248 79.2299 43.39C78.7382 43.5332 78.2088 43.6043 77.6383 43.6043C76.9728 43.5733 76.4102 43.39 75.9517 43.0567C75.492 42.7245 75.1444 42.2708 74.9066 41.6992C74.6688 41.1287 74.5258 40.4712 74.479 39.7243C74.4309 38.9785 74.4858 38.1927 74.6447 37.3679C74.8986 35.6232 75.3102 33.9152 75.8808 32.2495C76.4502 30.5828 77.0997 28.9332 77.8281 27.2996C78.5564 25.6649 79.3488 24.0382 80.2041 22.4207C81.0594 20.8021 81.8987 19.1674 82.7219 17.5178L82.8649 17.2325C81.9776 17.5819 81.0834 17.9622 80.1801 18.3746C79.2779 18.7859 78.3666 19.2464 77.4484 19.7539Z" fill="#D13763"/>
<path d="M108.142 26.0372C108.142 26.2595 108.063 26.4359 107.904 26.5607C107.745 26.6879 107.579 26.7589 107.405 26.7761C107.23 26.7921 107.08 26.7372 106.954 26.6089C106.827 26.4828 106.764 26.2927 106.764 26.0372C106.7 25.7211 106.645 25.3155 106.598 24.8229C106.55 24.3315 106.439 23.8561 106.265 23.3956C106.09 22.9351 105.813 22.5307 105.434 22.1813C105.053 21.8319 104.499 21.6417 103.77 21.6097C102.883 21.5787 102.02 21.7529 101.18 22.1343C100.341 22.5147 99.5418 23.0382 98.7814 23.7049C98.021 24.3705 97.3087 25.1414 96.6432 26.0132C95.9777 26.8861 95.3763 27.7911 94.8377 28.727C94.2992 29.6618 93.8315 30.6 93.4359 31.5347C93.0402 32.4706 92.7315 33.3355 92.5097 34.1294C92.3508 34.669 92.225 35.3196 92.1301 36.0814C92.0352 36.8432 92.066 37.5489 92.225 38.1995C92.3828 38.8502 92.7155 39.3497 93.2221 39.7002C93.7286 40.0496 94.521 40.0966 95.5981 39.8423C96.1046 39.7163 96.7221 39.3497 97.4516 38.7483C98.18 38.1457 98.9163 37.4378 99.6607 36.629C100.404 35.8191 101.109 34.9714 101.775 34.0813C102.44 33.1935 102.978 32.4157 103.391 31.7489C103.738 30.8291 104.032 29.9401 104.27 29.0832C104.507 28.2264 104.656 27.4829 104.72 26.8471C105.037 26.6879 105.465 26.7211 106.003 26.9422C106.542 27.1644 107.048 27.4829 107.524 27.8942C107.999 28.3066 108.379 28.782 108.664 29.3215C108.949 29.8634 109.013 30.3857 108.854 30.8932C108.664 31.3686 108.434 31.9403 108.166 32.6058C107.896 33.2725 107.626 33.9553 107.357 34.6529C107.088 35.3517 106.835 36.0413 106.598 36.7241C106.36 37.408 106.201 38.0266 106.122 38.5799C106.043 39.1355 106.043 39.5879 106.122 39.9385C106.201 40.2879 106.415 40.478 106.764 40.509H107.334C108.41 40.1917 109.416 39.6212 110.351 38.7952C111.285 37.9693 112.156 37.0345 112.965 35.9875C113.772 34.9405 114.516 33.8453 115.198 32.702C115.878 31.5599 116.503 30.5129 117.074 29.5609C117.169 29.4029 117.312 29.3158 117.502 29.2986C117.691 29.2826 117.858 29.3227 118 29.4177C118.143 29.5128 118.246 29.6411 118.309 29.7992C118.373 29.9596 118.341 30.1498 118.214 30.3697C117.581 31.3537 116.963 32.3538 116.362 33.3688C115.759 34.3849 115.126 35.3689 114.461 36.3208C113.796 37.2728 113.09 38.1927 112.346 39.0805C111.602 39.9683 110.786 40.7782 109.899 41.5079C109.677 41.6981 109.4 41.9203 109.068 42.1746C108.735 42.4301 108.355 42.6672 107.928 42.8883C107.5 43.1105 107.04 43.2938 106.55 43.437C106.058 43.579 105.529 43.634 104.958 43.6031C104.071 43.539 103.351 43.319 102.796 42.9364C102.241 42.5561 101.823 42.0646 101.537 41.4621C101.252 40.8595 101.101 40.1768 101.085 39.4161C101.069 38.6532 101.172 37.8754 101.394 37.0826C100.761 37.8754 100.088 38.6532 99.3748 39.4161C98.6625 40.1768 97.9261 40.8595 97.1657 41.4621C96.4054 42.0646 95.629 42.5481 94.8377 42.9135C94.0453 43.2789 93.2701 43.4301 92.5097 43.366C91.1479 43.303 90.0936 42.9776 89.3504 42.39C88.606 41.8034 88.0595 41.1138 87.7107 40.32C87.362 39.5272 87.1642 38.7013 87.1173 37.8444C87.0693 36.9875 87.0933 36.2739 87.1882 35.7022C87.346 34.5922 87.6947 33.3699 88.2333 32.0376C88.7718 30.7042 89.4693 29.3799 90.3246 28.0626C91.1799 26.7452 92.169 25.4919 93.2941 24.3017C94.4181 23.1126 95.6221 22.1126 96.905 21.3027C98.188 20.4939 99.5258 19.9223 100.92 19.5901C102.313 19.2567 103.738 19.2796 105.196 19.6622C105.83 19.8524 106.343 20.1617 106.74 20.5901C107.135 21.0186 107.444 21.5272 107.666 22.1137C107.888 22.7014 108.031 23.336 108.093 24.0176C108.158 24.6969 108.174 25.3705 108.142 26.0372Z" fill="#D13763"/>
<path d="M137.742 30.3686C137.298 31.0673 136.822 31.8291 136.316 32.6539C135.809 33.4799 135.247 34.3448 134.629 35.2486C134.012 36.1536 133.33 37.0574 132.586 37.9613C131.841 38.8651 131.01 39.7311 130.092 40.5571C129.173 41.3819 128.286 42.0085 127.431 42.4369C126.576 42.8654 125.769 43.1667 125.008 43.3408C124.248 43.5149 123.566 43.61 122.965 43.6272C122.362 43.6432 121.872 43.6512 121.492 43.6512C119.338 43.6512 117.659 43.0796 116.455 41.9363C115.251 40.7942 114.603 39.2397 114.508 37.2716C114.444 35.4628 114.769 33.6632 115.481 31.8692C116.195 30.0764 117.342 28.1324 118.926 26.0384C119.433 25.3717 120.114 24.65 120.97 23.871C121.825 23.0943 122.775 22.3715 123.82 21.7059C124.865 21.0392 125.973 20.4996 127.146 20.0872C128.317 19.6748 129.489 19.4847 130.663 19.5156C131.423 19.5156 132.063 19.6897 132.586 20.0391C133.109 20.3885 133.489 20.8479 133.727 21.4195C133.965 21.9911 134.036 22.6579 133.941 23.4185C133.846 24.1803 133.544 24.9581 133.037 25.7508C132.784 26.0682 132.499 26.1403 132.182 25.9651C131.865 25.7921 131.755 25.4977 131.849 25.0853C132.325 24.1333 132.459 23.3314 132.254 22.6796C132.047 22.0312 131.486 21.7849 130.566 21.9419C129.237 22.1962 127.985 22.7988 126.814 23.7507C125.642 24.7027 124.595 25.7978 123.677 27.035C122.758 28.2733 121.983 29.5495 121.349 30.868C120.716 32.1843 120.272 33.3504 120.019 34.3654C119.861 34.937 119.782 35.5808 119.782 36.2945C119.782 37.0093 119.877 37.6989 120.066 38.3657C120.256 39.0324 120.557 39.62 120.97 40.1275C121.381 40.6338 121.951 40.9832 122.68 41.1745C123.377 41.3338 124.177 41.3097 125.079 41.1024C125.982 40.8962 126.933 40.4838 127.93 39.8652C128.928 39.2466 129.949 38.4298 130.994 37.4137C132.04 36.3987 133.069 35.1604 134.083 33.701C134.589 32.9712 135.049 32.2576 135.46 31.5588C135.872 30.8623 136.253 30.1956 136.602 29.5598C136.727 29.4017 136.878 29.3135 137.052 29.2975C137.226 29.2826 137.385 29.3215 137.528 29.4166C137.671 29.5128 137.772 29.6388 137.836 29.7969C137.9 29.9562 137.868 30.1475 137.742 30.3686Z" fill="#D13763"/>
<path d="M137.124 19.7539C136.902 19.818 136.712 19.818 136.553 19.7539C136.395 19.6897 136.285 19.5866 136.221 19.4434C136.158 19.3002 136.158 19.1422 136.221 18.9669C136.285 18.7951 136.412 18.6427 136.602 18.5155C138.914 17.024 141.288 15.7708 143.729 14.7547C144.647 12.8508 145.415 11.0901 146.033 9.47141C146.65 7.85275 147.133 6.37728 147.481 5.04386C147.798 4.88577 148.226 4.91098 148.764 5.11603C149.303 5.32223 149.81 5.62351 150.285 6.01987C150.761 6.41738 151.14 6.88476 151.425 7.42432C151.711 7.96502 151.758 8.48853 151.568 8.99487C151.441 9.3454 151.227 9.85174 150.926 10.5184C150.625 11.1852 150.253 11.9641 149.81 12.8508C152.977 12.1543 156.177 11.8679 159.407 11.9939C159.502 12.2482 159.526 12.5346 159.479 12.8508C159.431 13.1681 159.336 13.4625 159.193 13.7317C159.052 14.0009 158.869 14.2255 158.647 14.3984C158.425 14.5726 158.203 14.6447 157.982 14.6126C156.398 14.5176 154.838 14.5267 153.302 14.6367C151.766 14.7501 150.19 14.9792 148.574 15.3286C148.226 16.0583 147.862 16.7869 147.481 17.5178C147.102 18.2486 146.737 18.9623 146.389 19.6599C146.167 20.1044 145.755 20.9212 145.153 22.1114C144.552 23.3017 143.878 24.658 143.134 26.1816C142.39 27.704 141.653 29.3078 140.925 30.9894C140.196 32.6711 139.602 34.2107 139.143 35.606C138.684 37.0036 138.422 38.1606 138.359 39.0816C138.296 40.0026 138.565 40.478 139.167 40.5078H139.737C140.814 40.1928 141.82 39.6212 142.754 38.7952C143.688 37.9693 144.552 37.0345 145.344 35.9875C146.135 34.9405 146.872 33.8453 147.553 32.702C148.234 31.5599 148.875 30.5129 149.478 29.5609C149.573 29.4029 149.706 29.3158 149.881 29.2998C150.055 29.2826 150.214 29.3227 150.357 29.4177C150.499 29.514 150.602 29.6411 150.666 29.7992C150.729 29.9596 150.697 30.1498 150.571 30.3697C149.936 31.3537 149.319 32.3538 148.717 33.3688C148.115 34.3849 147.489 35.3689 146.841 36.3208C146.19 37.2728 145.494 38.1927 144.75 39.0816C144.005 39.9683 143.189 40.7782 142.303 41.5079C142.081 41.6981 141.796 41.9203 141.447 42.1746C141.099 42.4301 140.711 42.658 140.283 42.8654C139.856 43.0727 139.396 43.2468 138.906 43.3889C138.414 43.5321 137.884 43.6031 137.314 43.6031C136.648 43.5722 136.086 43.3889 135.627 43.0555C135.168 42.7233 134.82 42.2697 134.582 41.6981C134.344 41.1276 134.201 40.47 134.155 39.7231C134.107 38.9774 134.161 38.1915 134.32 37.3667C134.574 35.6221 134.986 33.914 135.556 32.2484C136.126 30.5816 136.775 28.932 137.504 27.2985C138.232 25.6638 139.024 24.0371 139.88 22.4196C140.735 20.8009 141.574 19.1662 142.398 17.5166L142.54 17.2314C141.653 17.5808 140.759 17.9611 139.856 18.3735C138.954 18.7859 138.042 19.2464 137.124 19.7539Z" fill="#D13763"/>
<path d="M162.685 19.4205C163.446 19.5156 164.087 19.7058 164.61 19.991C165.132 20.2774 165.552 20.6279 165.869 21.0392C166.185 21.4516 166.415 21.9121 166.558 22.4196C166.701 22.9271 166.788 23.4357 166.82 23.942C167.39 24.6408 167.753 25.5607 167.912 26.7028C168.134 28.4807 167.936 30.3594 167.319 32.3435C166.701 34.3276 165.798 36.1444 164.61 37.794C163.422 39.4448 162.036 40.8011 160.452 41.8653C158.869 42.9284 157.237 43.4599 155.56 43.4599C153.753 43.429 152.153 42.8642 150.761 41.7691C149.366 40.6751 148.431 39.0014 147.957 36.747C147.672 35.5419 147.648 34.2566 147.886 32.8911C148.123 31.529 148.558 30.1795 149.192 28.8461C149.825 27.5138 150.625 26.2446 151.592 25.0383C152.558 23.8332 153.635 22.785 154.822 21.8972C156.01 21.0094 157.269 20.3335 158.6 19.873C159.93 19.4125 161.292 19.2624 162.685 19.4205ZM161.878 28.9893C161.751 28.9584 161.664 28.8221 161.616 28.5838C161.569 28.3455 161.529 28.0775 161.499 27.7739C161.467 27.4726 161.459 27.1484 161.475 26.7979C161.489 26.4485 161.499 26.1483 161.499 25.894C161.529 25.6088 161.656 25.3224 161.878 25.0372C162.099 24.7519 162.345 24.4976 162.615 24.2754C162.883 24.0543 163.145 23.871 163.399 23.7278C163.652 23.5846 163.827 23.4815 163.921 23.4174C164.301 23.2272 164.682 23.1321 165.061 23.1321C164.997 22.6876 164.792 22.3073 164.444 21.99C164.095 21.6738 163.462 21.5455 162.544 21.6085C161.783 21.6738 160.928 21.9499 159.978 22.4413C159.028 22.9351 158.156 23.5617 157.364 24.3235C156.51 25.2124 155.741 26.2194 155.06 27.3454C154.378 28.4727 153.817 29.6228 153.373 30.7981C152.93 31.9712 152.637 33.1213 152.494 34.2497C152.352 35.3746 152.383 36.3907 152.589 37.2957C152.795 38.2007 153.198 38.9384 153.801 39.5089C154.402 40.0805 155.227 40.3979 156.272 40.4609C157.507 40.525 158.734 40.0966 159.954 39.1756C161.173 38.2557 162.266 37.0987 163.232 35.7011C164.198 34.3047 164.973 32.8063 165.56 31.2025C166.147 29.601 166.423 28.1324 166.392 26.799C166.392 26.1335 166.169 25.752 165.727 25.6569C165.378 25.5928 164.991 25.6729 164.563 25.8952C164.135 26.1163 163.732 26.4027 163.351 26.7521C162.971 27.1014 162.639 27.4829 162.354 27.8942C162.068 28.3066 161.909 28.6708 161.878 28.9893Z" fill="#D13763"/>
</svg>
