<svg width="278" height="47" viewBox="0 0 278 47" fill="none" xmlns="http://www.w3.org/2000/svg">
<path d="M35.5897 45.3905C34.5315 45.4347 33.5268 45.294 32.5732 44.966C31.5313 44.6078 30.8913 43.8031 30.6532 42.5506C30.4139 41.2981 30.4592 39.7549 30.7867 37.9209C31.1143 36.087 31.673 34.0448 32.4617 31.7922C33.2515 29.5419 34.1668 27.2381 35.2099 24.882C36.2518 22.5282 37.3611 20.2081 38.5377 17.9276C39.7143 15.6471 40.8457 13.5526 41.9329 11.6431C43.0201 9.73586 44.0178 8.10309 44.9262 6.74593C45.8345 5.38878 46.5419 4.45726 47.0483 3.95022C47.1377 3.77229 47.0262 3.4583 46.7138 3.01056C46.4013 2.56283 46.0215 2.10114 45.5743 1.62434C45.1271 1.14753 44.673 0.745152 44.2118 0.41604C43.7495 0.0880904 43.4301 -0.0456479 43.2512 0.0136621H43.0724C40.5402 1.3557 38.1056 2.96637 35.7686 4.84452C33.4292 6.72267 31.1886 8.75898 29.0444 10.95C26.9002 13.1421 24.8524 15.4157 22.901 17.7718C20.9508 20.1267 19.1109 22.4526 17.3837 24.7494L18.1434 22.9155C18.9483 20.9466 19.7219 19.0836 20.4665 17.3229C21.211 15.5634 21.8742 13.9236 22.455 12.4036C23.0358 10.8825 23.4969 9.50443 23.8396 8.2659C24.1822 7.02969 24.353 5.94815 24.353 5.02362C24.353 4.66543 24.2566 4.29329 24.0626 3.90487C23.8686 3.51761 23.6537 3.16756 23.4156 2.85357C23.1763 2.53957 22.9382 2.28024 22.7001 2.07091C22.462 1.86274 22.2982 1.74412 22.2088 1.71388C21.3446 1.41617 20.2353 1.5941 18.881 2.25C17.5254 2.90706 16.0665 3.84556 14.5031 5.06781C12.9385 6.29006 11.353 7.6914 9.74428 9.27184C8.13671 10.8523 6.66155 12.3874 5.3223 13.8783C3.98188 15.3703 2.85751 16.7193 1.94919 17.9265C1.0397 19.1348 0.49726 19.9918 0.318383 20.4989C-0.0103326 20.8861 -0.0835096 21.4153 0.094206 22.0863C0.273083 22.7573 0.548368 23.4062 0.921223 24.0319C1.29292 24.6587 1.67274 25.1716 2.06069 25.5751C2.44749 25.9775 2.7158 26.0891 2.86448 25.9112C2.95392 25.4042 3.23617 24.6959 3.71357 23.7865C4.1898 22.8771 4.79264 21.856 5.52324 20.7222C6.25269 19.5895 7.08668 18.3812 8.02404 17.0996C8.96257 15.8157 9.93013 14.5493 10.9291 13.2956C11.9257 12.0431 12.9234 10.8511 13.9223 9.71725C14.9189 8.58454 15.8575 7.59255 16.7368 6.74361C17.6149 5.8935 18.4036 5.2376 19.104 4.77475C19.8032 4.31306 20.3329 4.12699 20.6906 4.21537C20.8091 4.24561 20.7046 4.70032 20.377 5.58066C20.0495 6.45985 19.5732 7.63791 18.9483 9.11368C18.3223 10.5895 17.5777 12.2897 16.7135 14.2132C15.8493 16.1367 14.9491 18.1486 14.0118 20.2512C13.0733 22.3538 12.1266 24.4715 11.1741 26.6032C10.2205 28.7348 9.34239 30.763 8.5386 32.6865C7.73366 34.6089 7.03441 36.3533 6.43854 37.9198C5.84267 39.4851 5.42568 40.7306 5.18756 41.654C5.15736 41.8633 5.32927 42.2354 5.70096 42.7727C6.07381 43.3088 6.50591 43.8391 6.99724 44.3601C7.48857 44.8823 7.9497 45.3149 8.38179 45.658C8.81389 45.9999 9.07407 46.0673 9.16351 45.8592C9.16351 45.4114 9.31219 44.7253 9.6107 43.8019C9.90806 42.8762 10.303 41.7819 10.7943 40.5143C11.2856 39.2467 11.8594 37.8302 12.5146 36.2649C13.1697 34.6984 13.855 33.0517 14.5693 31.3224C16.1479 29.1454 17.9204 26.8648 19.8857 24.4785C21.8522 22.0933 23.9441 19.7372 26.1627 17.4113C28.3812 15.0854 30.6671 12.8421 33.0204 10.679C35.3725 8.51826 37.7409 6.57149 40.1244 4.8422C39.23 6.33425 38.2624 8.03331 37.2205 9.9417C36.1775 11.8501 35.1344 13.8771 34.0925 16.025C33.0494 18.1718 32.0447 20.371 31.0771 22.6224C30.1096 24.8739 29.2674 27.08 28.5531 29.2407C27.8388 31.4038 27.287 33.468 26.9002 35.4357C26.5123 37.4046 26.3787 39.1641 26.4983 40.7143C26.6168 42.2645 27.0187 43.5612 27.704 44.6055C28.3893 45.6487 29.4614 46.3348 30.9203 46.6627C31.8739 46.9011 32.8485 47.0128 33.8474 46.9988C34.844 46.9826 35.8197 46.9314 36.7733 46.8418C36.9812 46.8116 37.2345 46.6848 37.533 46.4616C37.8303 46.2383 38.0986 46.0057 38.3368 45.7684C38.5749 45.5289 38.7317 45.3207 38.806 45.1416C38.8804 44.9637 38.813 44.8741 38.6051 44.8741C37.6514 45.1742 36.6467 45.3451 35.5897 45.3905Z" fill="#D13763"/>
<path d="M94.0012 19.6941C94.2986 19.4557 94.366 19.1789 94.2022 18.8661C94.0384 18.5533 93.7631 18.2335 93.3763 17.9044C92.9884 17.5764 92.5563 17.2787 92.0801 17.0101C91.6038 16.7414 91.2019 16.5333 90.8744 16.3832C90.1891 16.981 89.6083 17.5322 89.1321 18.0393C88.6547 18.5463 88.2377 19.0452 87.8811 19.5371C87.5233 20.0291 87.1807 20.514 86.8531 20.9908C86.5256 21.4676 86.1829 21.9607 85.8263 22.4666C84.6636 23.9877 83.5985 25.5019 82.6309 27.0067C81.6634 28.5127 80.7028 30.0257 79.7503 31.5468C78.9756 32.0841 78.3274 32.8517 77.8059 33.8506C77.584 34.2774 77.4191 34.7089 77.2913 35.1426C76.922 35.566 76.5503 35.9695 76.1763 36.3335C75.1936 37.2871 74.233 38.0547 73.2945 38.6361C72.3559 39.2176 71.4627 39.606 70.6136 39.7991C69.7645 39.9933 69.013 40.0165 68.3579 39.8665C67.8213 39.7479 67.3753 39.5246 67.0175 39.1955C66.6598 38.8675 66.3763 38.4803 66.1684 38.0326C65.9593 37.586 65.8118 37.1092 65.7224 36.601C65.6329 36.0951 65.6027 35.5881 65.6329 35.081C68.2534 34.3646 70.6508 33.2098 72.8252 31.6143C74.9984 30.0187 76.757 28.0138 78.0974 25.5984C78.6329 24.7634 78.9523 23.9807 79.058 23.2492C79.1614 22.5189 79.094 21.8781 78.8571 21.3269C78.6178 20.7733 78.238 20.3337 77.7176 20.007C77.1961 19.679 76.5781 19.515 75.8626 19.515C74.7615 19.4871 73.6592 19.6639 72.5569 20.0512C71.4546 20.4396 70.4127 20.9466 69.43 21.5723C68.4474 22.1991 67.5541 22.8771 66.7492 23.6074C65.9454 24.3389 65.3042 25.0169 64.828 25.6426C63.3389 27.6103 62.2598 29.4373 61.5896 31.1224C61.5327 31.2677 61.4932 31.4119 61.4409 31.5573C61.3701 31.6759 61.305 31.7841 61.233 31.905C60.5919 32.9784 59.8926 34.0076 59.133 34.9915C58.3733 35.9753 57.5614 36.8557 56.6984 37.6302C55.8342 38.4059 54.8957 38.9431 53.884 39.2409H53.3032C52.7666 39.2118 52.4983 38.8606 52.4983 38.1896C52.4983 37.5185 52.6469 36.6614 52.9454 35.6183C53.2428 34.5751 53.6528 33.4261 54.1744 32.1737C54.6947 30.9212 55.2163 29.7071 55.7378 28.5278C56.2582 27.3509 56.7425 26.2996 57.1897 25.3751C57.6369 24.4506 57.9343 23.7795 58.0829 23.362C58.2316 22.8852 58.1724 22.3933 57.9041 21.8863C57.6369 21.3792 57.2792 20.9315 56.832 20.5442C56.3859 20.157 55.9085 19.8662 55.4021 19.672C54.8957 19.4778 54.4938 19.4557 54.1964 19.6046C53.8689 20.8873 53.3845 22.3933 52.7445 24.1226C52.1033 25.8519 51.4715 27.5963 50.8454 29.3558C50.3099 30.2501 49.721 31.2119 49.081 32.2411C48.4398 33.2691 47.7557 34.2518 47.0262 35.1926C46.2956 36.1323 45.5139 36.9673 44.6799 37.6976C43.8459 38.4291 42.9376 38.9431 41.955 39.2409H41.4195C40.8829 39.2118 40.6145 38.8606 40.6145 38.1896C40.6145 37.5185 40.7632 36.6614 41.0617 35.6183C41.3591 34.5751 41.761 33.4261 42.2686 32.1737C42.7738 30.9212 43.2954 29.7071 43.832 28.5278C44.3675 27.3509 44.8518 26.2996 45.2839 25.3751C45.7149 24.4506 46.0052 23.7795 46.1551 23.362C46.3038 22.8852 46.2445 22.3933 45.9762 21.8863C45.7079 21.3792 45.3501 20.9315 44.9041 20.5442C44.4569 20.157 43.9876 19.8662 43.4963 19.672C43.005 19.4778 42.6101 19.4557 42.3127 19.6046C42.0142 20.7082 41.6053 21.9979 41.0838 23.4737C40.5623 24.9495 40.0187 26.4543 39.453 27.9917C38.8873 29.5291 38.3658 31.0258 37.8896 32.4865C37.4133 33.9483 37.0707 35.2147 36.8628 36.2881C36.7129 37.065 36.6537 37.7953 36.6839 38.4803C36.7129 39.1664 36.8465 39.777 37.0858 40.3142C37.3239 40.8515 37.6584 41.2841 38.0905 41.6121C38.5226 41.94 39.0511 42.118 39.6772 42.1482C40.2126 42.1482 40.7109 42.0808 41.1732 41.947C41.6344 41.8133 42.0665 41.6493 42.4695 41.4551C42.8714 41.2609 43.235 41.0446 43.5637 40.8062C43.8912 40.5678 44.1596 40.3584 44.3675 40.1805C45.3211 39.4048 46.1841 38.5326 46.9589 37.5639C47.7336 36.5952 48.4631 35.5881 49.1484 34.5437C48.9695 35.1706 48.8359 35.752 48.7465 36.2881C48.5966 37.065 48.5455 37.7953 48.5897 38.4803C48.6338 39.1664 48.7685 39.777 48.9916 40.3142C49.2146 40.8515 49.5421 41.2841 49.9742 41.6121C50.4063 41.94 50.9499 42.118 51.605 42.1482C52.1417 42.1482 52.64 42.0808 53.1023 41.947C53.5634 41.8133 53.9955 41.6493 54.3974 41.4551C54.7993 41.2609 55.164 41.0446 55.4915 40.8062C55.8191 40.5678 56.0874 40.3584 56.2965 40.1805C57.1293 39.4944 57.889 38.7338 58.5743 37.8988C59.2596 37.065 59.9147 36.1998 60.5408 35.3043C60.5942 35.2275 60.6406 35.1426 60.6952 35.0647C60.672 35.4427 60.6604 35.8206 60.6732 36.1986C60.7626 38.0477 61.3736 39.5083 62.5049 40.5817C63.6363 41.6563 65.2148 42.1924 67.2405 42.1924C67.5983 42.1924 68.0594 42.1854 68.6262 42.1703C69.1907 42.1552 69.8319 42.0656 70.5463 41.9017C71.2618 41.7389 72.0214 41.4539 72.8252 41.0527C73.629 40.6503 74.463 40.0619 75.3272 39.285C75.959 38.7187 76.5328 38.1233 77.0776 37.5162C77.1276 37.9849 77.2147 38.4442 77.3819 38.8838C77.6212 39.5095 77.9929 40.0689 78.4993 40.5608C79.0046 41.0527 79.6458 41.4563 80.4205 41.7691C81.1941 42.0819 82.1175 42.2831 83.1896 42.3727C84.2025 42.432 85.148 42.2982 86.0273 41.9703C86.9054 41.6423 87.6639 41.1655 88.3051 40.5387C88.9451 39.913 89.4294 39.1525 89.757 38.2582C90.0845 37.3627 90.2332 36.3789 90.2042 35.3055C90.1438 34.2321 90.0694 33.1517 89.98 32.0632C89.8917 30.9747 89.8534 29.8931 89.8685 28.8197C89.8836 27.7463 90.0172 26.695 90.2704 25.6658C90.5236 24.6378 90.9638 23.647 91.5887 22.6922C91.857 22.3049 92.065 21.9909 92.2148 21.7525C92.3635 21.5141 92.5122 21.2978 92.6608 21.1036C92.8095 20.9106 92.9803 20.7094 93.1754 20.5C93.3682 20.2896 93.6435 20.0221 94.0012 19.6941ZM65.856 33.4692C66.0941 32.5167 66.5111 31.4189 67.1069 30.1815C67.7028 28.9442 68.4323 27.744 69.2964 26.5811C70.1595 25.4181 71.1421 24.3889 72.2444 23.4946C73.3456 22.6003 74.5234 22.034 75.7744 21.7944C76.6072 21.6455 77.1287 21.877 77.3378 22.4887C77.5457 23.0981 77.4412 23.8377 77.0242 24.7018C75.8336 26.9683 74.2702 28.8546 72.3339 30.3606C70.3976 31.8666 68.2232 32.9621 65.8118 33.6483C65.8118 33.5901 65.8258 33.5296 65.856 33.4692ZM85.982 33.2471C86.1167 34.2611 86.1829 35.2299 86.1829 36.1544C86.1829 36.751 86.1167 37.3255 85.982 37.8756C85.8484 38.428 85.6312 38.9129 85.3338 39.3292C85.0365 39.7467 84.6636 40.0665 84.2176 40.291C83.7704 40.5143 83.2349 40.5968 82.6089 40.5364C82.0432 40.5073 81.4694 40.3503 80.8886 40.0665C80.3078 39.7839 79.8398 39.3444 79.482 38.7478C79.1242 38.2105 78.9616 37.6965 78.9907 37.2045C79.0197 36.7126 79.1695 36.2719 79.4367 35.8846C79.705 35.4973 80.0628 35.1764 80.51 34.9229C80.956 34.6705 81.4253 34.4833 81.9166 34.3646C82.4079 34.2449 82.9062 34.2239 83.4138 34.2984C83.9191 34.3728 84.3512 34.5588 84.7089 34.8566C84.7984 34.7682 84.7902 34.5519 84.6869 34.2088C84.5823 33.8657 84.4406 33.4924 84.2617 33.0901C84.0829 32.6877 83.897 32.3074 83.7042 31.9492C83.5102 31.5922 83.3685 31.3538 83.2791 31.234C83.041 31.1445 82.8168 31.07 82.6089 31.0107C82.4009 30.9502 82.1919 30.9212 81.9828 30.9212C82.7262 29.7292 83.5311 28.4464 84.3953 27.073C85.2583 25.7019 86.1376 24.4796 87.0308 23.4051C86.435 24.568 86.0621 25.7089 85.9134 26.8265C85.7648 27.9452 85.7055 29.0407 85.7357 30.1141C85.7659 31.1875 85.8484 32.233 85.982 33.2471Z" fill="#D13763"/>
<path d="M151.297 28.8186C151.162 28.729 151.006 28.6918 150.827 28.7069C150.648 28.722 150.515 28.8034 150.425 28.9523C149.889 29.8478 149.301 30.8316 148.661 31.905C148.02 32.9784 147.321 34.0076 146.561 34.9915C145.801 35.9753 144.981 36.8557 144.103 37.6302C143.225 38.4059 142.28 38.9431 141.267 39.2409H140.731C140.402 39.2106 140.202 39.0315 140.127 38.7036C140.053 38.3756 140.053 37.9512 140.127 37.429C140.202 36.908 140.351 36.3265 140.574 35.6846C140.797 35.0438 141.035 34.3949 141.289 33.739C141.542 33.0831 141.795 32.4411 142.048 31.8155C142.302 31.1886 142.518 30.6525 142.696 30.2048C142.845 29.728 142.786 29.2361 142.518 28.729C142.249 28.222 141.893 27.7754 141.446 27.387C140.998 26.9997 140.522 26.702 140.016 26.4927C139.509 26.2845 139.107 26.2543 138.81 26.4031C138.75 26.9997 138.609 27.6998 138.385 28.5057C138.162 29.3105 137.887 30.1455 137.559 31.0096C137.171 31.6364 136.666 32.3679 136.04 33.2017C135.414 34.0367 134.752 34.8345 134.051 35.595C133.352 36.3556 132.66 37.0208 131.974 37.586C131.289 38.1523 130.708 38.4954 130.232 38.614C129.219 38.8536 128.475 38.8082 127.998 38.4803C127.521 38.1523 127.209 37.6813 127.06 37.0708C126.91 36.4603 126.881 35.7962 126.97 35.081C127.06 34.3646 127.178 33.7529 127.328 33.247C127.536 32.5016 127.826 31.6887 128.199 30.8084C128.571 29.9303 129.01 29.05 129.516 28.1696C130.023 27.2905 130.59 26.4415 131.215 25.6205C131.841 24.8006 132.51 24.0773 133.225 23.4504C133.94 22.8248 134.692 22.3328 135.481 21.9735C136.27 21.6165 137.082 21.4525 137.916 21.4816C138.601 21.5118 139.122 21.6909 139.48 22.0188C139.837 22.3468 140.097 22.7271 140.262 23.1585C140.425 23.5923 140.529 24.0389 140.574 24.4994C140.618 24.9623 140.671 25.3437 140.731 25.6402C140.731 25.8798 140.79 26.0577 140.909 26.1775C141.029 26.2961 141.17 26.3485 141.334 26.3334C141.497 26.3194 141.653 26.252 141.803 26.1322C141.952 26.0136 142.026 25.8496 142.026 25.6402C142.055 25.0146 142.041 24.3808 141.981 23.7388C141.922 23.0981 141.787 22.5026 141.579 21.9502C141.371 21.3978 141.081 20.921 140.708 20.5187C140.335 20.1163 139.852 19.8255 139.256 19.6464C137.887 19.2894 136.546 19.2662 135.236 19.5802C133.925 19.893 132.667 20.4279 131.461 21.1897C130.254 21.9502 129.122 22.8899 128.065 24.0075C127.008 25.1262 126.077 26.3043 125.273 27.5417C124.468 28.779 123.813 30.0234 123.307 31.2759C123.274 31.3561 123.249 31.4317 123.219 31.5108C122.803 32.1748 122.363 32.854 121.877 33.5576C121.371 34.2739 120.805 34.9449 120.18 35.5694C119.554 36.1963 118.929 36.7405 118.303 37.2022C117.678 37.6651 117.089 38.0233 116.539 38.2756C115.987 38.5291 115.519 38.6408 115.132 38.6105C114.565 38.5815 114.185 38.4396 113.993 38.1861C113.799 37.9337 113.731 37.5976 113.792 37.1801C113.851 36.7626 113.999 36.3009 114.238 35.7927C114.476 35.2868 114.759 34.7717 115.087 34.2495C115.414 33.7285 115.757 33.2215 116.115 32.7295C116.472 32.2376 116.799 31.812 117.097 31.455C117.96 30.292 118.84 29.1663 119.733 28.0778C120.626 26.9881 121.401 25.9682 122.056 25.0134C122.711 24.0598 123.195 23.2178 123.508 22.4864C123.821 21.756 123.828 21.1664 123.531 20.7198C123.501 20.6896 123.411 20.6001 123.263 20.4512C123.113 20.3023 122.942 20.1535 122.748 20.0035C122.554 19.8546 122.377 19.7209 122.213 19.6011C122.049 19.4825 121.922 19.422 121.833 19.422C121.683 19.6011 121.349 19.8325 120.828 20.1151C120.307 20.3989 119.703 20.6896 119.019 20.9873C118.333 21.2862 117.626 21.5769 116.896 21.8595C116.166 22.1444 115.504 22.3817 114.908 22.5759C114.312 22.7701 113.851 22.8969 113.523 22.9562C113.196 23.0167 113.091 22.9562 113.211 22.7771L115.087 20.0512C115.355 19.3953 115.458 18.8359 115.399 18.373C115.34 17.9113 115.191 17.5241 114.953 17.2101C114.714 16.8973 114.41 16.6286 114.037 16.4053C113.664 16.182 113.3 15.996 112.942 15.846C112.764 16.3239 112.421 16.9496 111.915 17.7253C111.408 18.5009 110.932 19.3127 110.485 20.1628C110.039 21.0129 109.74 21.8177 109.591 22.5782C109.443 23.3388 109.637 23.9424 110.172 24.3901C109.576 25.2844 109.018 26.1717 108.497 27.0509C107.976 27.9312 107.417 28.8476 106.822 29.8024C106.81 29.821 106.808 29.8361 106.798 29.8536C106.397 30.5013 105.985 31.1747 105.55 31.905C104.909 32.9784 104.217 34.0076 103.472 34.9903C102.728 35.9753 101.916 36.8557 101.038 37.6302C100.159 38.4059 99.2131 38.942 98.2002 39.2409H97.6636C97.0979 39.2106 96.8435 38.764 96.9039 37.8988C96.9632 37.0336 97.2094 35.9462 97.6415 34.6333C98.0724 33.3215 98.6311 31.8759 99.3165 30.2943C100.002 28.7139 100.694 27.2079 101.393 25.7763C102.094 24.3459 102.727 23.0701 103.292 21.9526C103.858 20.8338 104.245 20.0663 104.454 19.6488C104.782 18.994 105.124 18.3219 105.482 17.6369C105.84 16.9519 106.181 16.2658 106.509 15.5785C108.028 15.2505 109.509 15.0342 110.954 14.9296C112.399 14.8261 113.866 14.8179 115.355 14.9075C115.563 14.9377 115.772 14.8702 115.98 14.7063C116.189 14.5423 116.36 14.3341 116.494 14.0806C116.628 13.8271 116.717 13.5515 116.763 13.2526C116.807 12.9549 116.785 12.6862 116.695 12.449C113.657 12.3281 110.648 12.5979 107.67 13.2526C108.087 12.4176 108.437 11.6873 108.72 11.0604C109.004 10.4348 109.205 9.95798 109.324 9.63003C109.502 9.15322 109.458 8.6613 109.19 8.15309C108.921 7.64721 108.565 7.20762 108.117 6.83432C107.67 6.46101 107.194 6.17842 106.688 5.98421C106.181 5.78999 105.779 5.7679 105.482 5.91675C105.153 7.16924 104.7 8.55663 104.119 10.0766C103.539 11.5966 102.816 13.2514 101.952 15.0412C99.658 15.996 97.4243 17.174 95.2511 18.5754C95.0722 18.6952 94.9525 18.837 94.8933 18.9999C94.8341 19.165 94.8341 19.3138 94.8933 19.4476C94.9525 19.5813 95.0571 19.679 95.2058 19.7383C95.3556 19.7988 95.5333 19.7988 95.7424 19.7383C96.6054 19.2615 97.4626 18.8289 98.3117 18.4416C99.1596 18.0544 100.002 17.6962 100.836 17.3671L100.701 17.6357C99.9263 19.1871 99.1376 20.7222 98.3338 22.2433C97.53 23.7644 96.7843 25.2925 96.1002 26.8276C95.4148 28.3639 94.8039 29.9141 94.2684 31.4794C93.7318 33.0447 93.345 34.6484 93.1069 36.2881C92.957 37.0638 92.9059 37.8023 92.9501 38.5012C92.9954 39.2036 93.1289 39.8212 93.352 40.3584C93.5761 40.8957 93.9037 41.3202 94.3346 41.633C94.7667 41.9459 95.2952 42.118 95.9213 42.1482C96.4567 42.1482 96.9562 42.0808 97.4173 41.9459C97.8796 41.8121 98.3117 41.6493 98.7136 41.4539C99.1155 41.2609 99.4802 41.0446 99.8078 40.8062C100.135 40.5678 100.404 40.3584 100.612 40.1793C101.446 39.4944 102.212 38.7338 102.913 37.8988C103.612 37.0638 104.268 36.1986 104.879 35.3043C105.489 34.4088 106.077 33.4866 106.643 32.5307C107.209 31.5771 107.79 30.6374 108.386 29.7129C108.446 29.607 108.482 29.5094 108.497 29.4198C108.845 28.8802 109.179 28.3522 109.547 27.7905C110.172 26.8358 110.827 25.8821 111.513 24.9274C111.661 24.9564 111.81 24.9727 111.96 24.9727H112.406C112.823 24.9727 113.181 24.9576 113.479 24.9274C113.776 24.8983 114.06 24.846 114.327 24.7704C114.595 24.6971 114.886 24.6215 115.198 24.5471C115.512 24.4738 115.89 24.4064 116.338 24.3459C116.456 24.3168 116.456 24.4192 116.338 24.6587C116.218 24.8983 116.025 25.2181 115.757 25.6205C115.489 26.0229 115.161 26.4857 114.774 27.0079C114.386 27.5289 113.999 28.0592 113.613 28.5953C113.017 29.4 112.443 30.1757 111.892 30.9212C111.341 31.6678 110.835 32.4202 110.373 33.1796C109.912 33.9402 109.532 34.7228 109.235 35.5287C108.936 36.3335 108.773 37.1987 108.742 38.1221C108.713 39.1362 108.967 40.0317 109.502 40.8062C110.039 41.5819 110.873 41.9994 112.004 42.0587C113.106 42.118 114.178 41.9179 115.221 41.4551C116.263 40.9934 117.246 40.3887 118.169 39.6421C119.093 38.8978 119.957 38.0628 120.761 37.1383C121.313 36.5045 121.806 35.8788 122.274 35.2589C122.239 35.6927 122.226 36.1684 122.257 36.737C122.302 37.5418 122.488 38.3175 122.816 39.0629C123.143 39.8084 123.657 40.4573 124.357 41.0085C125.056 41.5609 126.047 41.8656 127.328 41.9249C128.043 41.9854 128.772 41.8435 129.516 41.5005C130.261 41.1585 130.992 40.7027 131.706 40.1363C132.422 39.57 133.114 38.928 133.784 38.2128C134.454 37.4976 135.086 36.7661 135.682 36.0207C135.474 36.7661 135.376 37.4976 135.392 38.2128C135.407 38.928 135.548 39.57 135.817 40.1363C136.085 40.7027 136.479 41.1644 137 41.5225C137.521 41.8807 138.199 42.0889 139.033 42.1494C139.57 42.1784 140.068 42.1261 140.529 41.9924C140.991 41.8586 141.423 41.6865 141.825 41.4795C142.227 41.2702 142.585 41.0469 142.897 40.8085C143.21 40.5701 143.47 40.3608 143.679 40.1817C144.513 39.4967 145.28 38.7361 145.98 37.9011C146.679 37.0662 147.343 36.2009 147.968 35.3066C148.594 34.4123 149.19 33.4889 149.755 32.533C150.321 31.5794 150.902 30.6397 151.497 29.7152C151.616 29.507 151.646 29.3279 151.587 29.1791C151.527 29.0279 151.43 28.9069 151.297 28.8186Z" fill="#D13763"/>
<path d="M277.971 29.1768C277.91 29.0279 277.814 28.9081 277.68 28.8186C277.546 28.729 277.39 28.6918 277.211 28.7069C277.032 28.722 276.899 28.8034 276.809 28.9523C276.272 29.8478 275.685 30.8316 275.045 31.905C274.404 32.9784 273.704 34.0076 272.945 34.9915C272.185 35.9753 271.365 36.8557 270.487 37.6302C269.609 38.4059 268.663 38.9431 267.65 39.2409H267.115C266.786 39.2106 266.585 39.0315 266.511 38.7036C266.437 38.3756 266.437 37.9512 266.511 37.429C266.585 36.908 266.735 36.3265 266.958 35.6846C267.181 35.0438 267.419 34.3949 267.672 33.739C267.926 33.0831 268.179 32.4411 268.432 31.8155C268.685 31.1886 268.901 30.6525 269.08 30.2048C269.229 29.728 269.17 29.2361 268.901 28.729C268.633 28.222 268.276 27.7754 267.829 27.387C267.382 26.9997 266.906 26.702 266.399 26.4927C265.893 26.2845 265.491 26.2543 265.194 26.4031C265.133 26.9997 264.993 27.6998 264.769 28.5057C264.546 29.3105 264.27 30.1455 263.943 31.0096C263.555 31.6364 263.049 32.3679 262.423 33.2017C261.797 34.0367 261.135 34.8345 260.435 35.595C259.736 36.3556 259.043 37.0208 258.358 37.586C257.673 38.1523 257.092 38.4954 256.616 38.614C255.603 38.8536 254.858 38.8082 254.382 38.4803C253.905 38.1523 253.592 37.6813 253.444 37.0708C253.294 36.4603 253.265 35.7962 253.354 35.081C253.444 34.3646 253.562 33.7529 253.712 33.2471C253.92 32.5016 254.21 31.6887 254.583 30.8084C254.955 29.9303 255.394 29.05 255.9 28.1696C256.407 27.2905 256.973 26.4415 257.598 25.6205C258.224 24.8006 258.893 24.0773 259.609 23.4504C260.323 22.8248 261.076 22.3328 261.865 21.9735C262.653 21.6165 263.465 21.4525 264.299 21.4816C264.985 21.5118 265.506 21.6909 265.864 22.0188C266.22 22.3468 266.481 22.7271 266.646 23.1585C266.808 23.5923 266.913 24.0389 266.958 24.4994C267.002 24.9623 267.054 25.3437 267.115 25.6402C267.115 25.8798 267.174 26.0577 267.293 26.1775C267.412 26.2961 267.554 26.3485 267.718 26.3334C267.88 26.3194 268.037 26.252 268.187 26.1322C268.336 26.0136 268.41 25.8496 268.41 25.6402C268.439 25.0146 268.425 24.3808 268.365 23.7388C268.305 23.0981 268.171 22.5026 267.963 21.9502C267.755 21.3978 267.464 20.921 267.092 20.5187C266.719 20.1163 266.236 19.8255 265.64 19.6464C264.27 19.2894 262.93 19.2662 261.62 19.5802C260.308 19.893 259.05 20.4279 257.845 21.1897C256.638 21.9502 255.505 22.8899 254.448 24.0075C253.391 25.1262 252.461 26.3043 251.657 27.5417C250.852 28.779 250.197 30.0234 249.691 31.2759C249.638 31.4073 249.594 31.5317 249.545 31.6608C249.495 31.7434 249.45 31.819 249.4 31.9027C248.759 32.9761 248.06 34.0053 247.3 34.9891C246.54 35.973 245.72 36.8533 244.843 37.6278C243.964 38.4035 243.019 38.9397 242.006 39.2385H241.47C241.082 39.2083 240.837 39.0001 240.733 38.6117C240.628 38.2244 240.621 37.7255 240.711 37.1138C240.8 36.5021 240.963 35.816 241.202 35.0543C241.44 34.2949 241.722 33.5564 242.051 32.8412V32.9296C242.914 30.5746 243.912 28.308 245.044 26.131C246.176 23.9551 247.292 21.7921 248.394 19.6453C248.901 18.6917 249.414 17.6997 249.936 16.6705C250.457 15.6424 250.949 14.6656 251.41 13.741C251.872 12.8177 252.274 11.9896 252.617 11.2581C252.958 10.529 253.189 9.98356 253.309 9.62654C253.457 9.14973 253.398 8.65781 253.13 8.1496C252.862 7.64372 252.512 7.20413 252.08 6.83083C251.648 6.45752 251.187 6.17493 250.695 5.98072C250.204 5.78651 249.809 5.76441 249.512 5.91327C249.303 6.68895 249.042 7.53906 248.73 8.4636C248.416 9.38814 248.044 10.3638 247.613 11.393C247.181 12.4211 246.719 13.4654 246.228 14.5237C245.737 15.5831 245.207 16.6193 244.641 17.6322L242.318 22.0165C242.11 21.4502 241.82 20.9582 241.447 20.5396C241.074 20.1233 240.591 19.8244 239.995 19.6441C238.626 19.2871 237.285 19.2638 235.975 19.5778C234.664 19.8907 233.406 20.4268 232.2 21.1873C230.993 21.9479 229.861 22.8876 228.805 24.0052C227.747 25.1239 226.816 26.3031 226.013 27.5393C225.208 28.7767 224.553 30.021 224.046 31.2735C224.001 31.3863 223.965 31.4922 223.922 31.6038C223.685 31.9853 223.462 32.3644 223.197 32.7505C222.035 34.4798 220.852 35.8672 219.646 36.9103C218.439 37.9546 217.404 38.685 216.541 39.1025C216.213 39.2513 215.944 39.3257 215.736 39.3257C215.529 39.3257 215.372 39.2804 215.267 39.1908C215.163 39.1025 215.096 38.9978 215.066 38.878C215.036 38.7582 215.022 38.6547 215.022 38.564C215.112 37.3115 215.304 36.1858 215.603 35.1868C215.9 34.1879 216.287 33.1447 216.764 32.0562C217.241 30.9677 217.792 29.7303 218.417 28.3441C219.042 26.9579 219.728 25.2507 220.472 23.2225C220.591 22.8957 220.577 22.5212 220.428 22.1049C220.278 21.6874 220.063 21.2932 219.78 20.9199C219.496 20.5466 219.169 20.2337 218.797 19.9802C218.424 19.7267 218.075 19.5999 217.747 19.5999C216.943 19.6604 216.153 19.8535 215.38 20.1814C214.604 20.5093 213.845 20.935 213.101 21.456C212.356 21.9781 211.627 22.5678 210.911 23.2237C210.197 23.8796 209.527 24.5517 208.901 25.2355C209.08 24.9076 209.243 24.5948 209.393 24.2971C209.542 23.9993 209.66 23.6853 209.75 23.3574C209.899 22.8806 209.839 22.3887 209.571 21.8816C209.304 21.3746 208.946 20.9268 208.499 20.5396C208.053 20.1523 207.584 19.8616 207.092 19.6674C206.601 19.4732 206.206 19.4511 205.909 19.5999C205.401 21.3001 204.82 22.9853 204.165 24.6541C203.582 26.1438 203.029 27.6393 202.493 29.1395C202.193 29.6815 201.878 30.2385 201.53 30.827C201.143 31.4829 200.711 32.1539 200.235 32.84C199.281 34.2111 198.313 35.3741 197.331 36.3288C196.348 37.2825 195.387 38.05 194.449 38.6315C193.51 39.2129 192.617 39.6014 191.768 39.7944C190.919 39.9886 190.167 40.0119 189.512 39.8619C188.976 39.7432 188.53 39.52 188.172 39.1908C187.814 38.8629 187.531 38.4756 187.323 38.0279C187.114 37.5813 186.966 37.1045 186.877 36.5963C186.787 36.0904 186.757 35.5834 186.787 35.0764C189.408 34.36 191.805 33.2052 193.98 31.6096C196.153 30.0141 197.911 28.0092 199.252 25.5937C199.787 24.7587 200.107 23.9761 200.212 23.2446C200.316 22.5143 200.248 21.8735 200.012 21.3222C199.772 20.7687 199.392 20.3291 198.872 20.0023C198.351 19.6744 197.733 19.5104 197.017 19.5104C195.916 19.4825 194.814 19.6592 193.711 20.0465C192.609 20.4349 191.567 20.942 190.584 21.5676C189.602 22.1945 188.709 22.8724 187.904 23.6028C187.1 24.3343 186.459 25.0123 185.982 25.6379C184.493 27.6056 183.414 29.4326 182.744 31.1177C182.713 31.1968 182.693 31.2759 182.663 31.3549C182.439 31.6678 182.219 31.9771 181.984 32.3027C181.255 33.3168 180.48 34.2856 179.661 35.2101C178.842 36.1346 177.971 36.9615 177.048 37.693C176.124 38.4233 175.127 38.9373 174.055 39.235H173.563C173.028 39.206 172.797 38.8559 172.871 38.1849C172.945 37.5139 173.183 36.6568 173.585 35.6125C173.988 34.5693 174.516 33.4203 175.172 32.1678C175.827 30.9154 176.474 29.7012 177.115 28.5232C177.755 27.3451 178.351 26.2938 178.902 25.3693C179.452 24.4459 179.818 23.7749 179.997 23.3562C180.205 22.8806 180.198 22.3875 179.974 21.8805C179.751 21.3734 179.438 20.9268 179.036 20.5384C178.635 20.1512 178.187 19.8604 177.696 19.6662C177.205 19.4732 176.81 19.4499 176.512 19.5988C176.094 20.7024 175.544 21.9921 174.86 23.469C174.173 24.946 173.474 26.4508 172.759 27.9859C172.446 28.6581 172.146 29.3198 171.85 29.978C171.474 30.5862 171.088 31.2189 170.683 31.8992C170.041 32.9726 169.349 34.0018 168.605 34.9845C167.86 35.9695 167.048 36.8498 166.17 37.6244C165.291 38.4 164.345 38.9362 163.332 39.235H162.797C162.231 39.2048 161.977 38.7582 162.037 37.893C162.097 37.0278 162.343 35.9404 162.775 34.6275C163.206 33.3157 163.764 31.8701 164.45 30.2885C165.135 28.7081 165.827 27.2021 166.527 25.7705C167.227 24.3401 167.86 23.0643 168.426 21.9467C168.991 20.828 169.378 20.0605 169.587 19.643C169.915 18.9882 170.258 18.316 170.615 17.6311C170.973 16.9461 171.315 16.26 171.642 15.5727C173.161 15.2447 174.642 15.0284 176.087 14.9237C177.126 14.8493 178.179 14.8423 179.24 14.8668C179.223 15.0133 179.199 15.168 179.191 15.304C179.191 15.5436 179.273 15.818 179.437 16.132C179.601 16.4449 179.802 16.7577 180.04 17.0705C180.278 17.3857 180.538 17.6601 180.822 17.8985C181.105 18.1381 181.365 18.2718 181.603 18.3009C181.752 17.7055 181.976 17.1089 182.274 16.5123C182.571 15.9157 182.876 15.3122 183.19 14.6993C183.503 14.0899 183.8 13.491 184.083 12.9095C184.366 12.3281 184.582 11.7547 184.731 11.1884C184.731 11.0093 184.582 10.6895 184.284 10.2266C183.986 9.76377 183.621 9.30906 183.19 8.86249C182.758 8.41475 182.319 8.02749 181.872 7.69955C181.425 7.3716 181.068 7.22274 180.8 7.25181C180.769 7.90771 180.673 8.60082 180.509 9.33231C180.345 10.0626 180.167 10.786 179.973 11.5012C179.886 11.8222 179.82 12.1164 179.743 12.4257C177.411 12.4711 175.098 12.7409 172.802 13.2456C173.219 12.4106 173.569 11.6803 173.852 11.0535C174.136 10.4278 174.337 9.951 174.456 9.62305C174.634 9.14624 174.59 8.65432 174.322 8.14611C174.053 7.64023 173.697 7.20064 173.25 6.82734C172.802 6.45403 172.326 6.17144 171.82 5.97723C171.313 5.78302 170.911 5.76092 170.614 5.90978C170.285 7.16227 169.832 8.54965 169.252 10.0696C168.671 11.5896 167.948 13.2445 167.084 15.0342C164.79 15.989 162.556 17.1671 160.383 18.5684C160.204 18.6882 160.085 18.8301 160.025 18.9929C159.966 19.158 159.966 19.3069 160.025 19.4406C160.085 19.5743 160.189 19.672 160.338 19.7313C160.488 19.7918 160.666 19.7918 160.875 19.7313C161.738 19.2545 162.595 18.8219 163.444 18.4347C164.292 18.0474 165.134 17.6892 165.968 17.3601L165.833 17.6287C165.058 19.1801 164.27 20.7152 163.466 22.2363C162.662 23.7574 161.916 25.2856 161.232 26.8206C160.547 28.3569 159.936 29.9071 159.401 31.4724C158.864 33.0377 158.477 34.6414 158.239 36.2812C158.089 37.0568 158.038 37.7953 158.082 38.4942C158.128 39.1967 158.261 39.8142 158.484 40.3515C158.708 40.8887 159.036 41.3132 159.467 41.626C159.899 41.9389 160.427 42.111 161.053 42.1412C161.589 42.1412 162.088 42.0738 162.55 41.9389C163.012 41.8051 163.444 41.6423 163.846 41.447C164.248 41.2539 164.612 41.0376 164.94 40.7992C165.268 40.5608 165.536 40.3515 165.744 40.1724C166.578 39.4874 167.344 38.7268 168.045 37.8918C168.522 37.3232 168.971 36.7336 169.407 36.137C169.393 36.1846 169.377 36.2346 169.363 36.2823C169.125 37.058 168.99 37.7883 168.96 38.4745C168.931 39.1606 169.005 39.7712 169.184 40.3084C169.363 40.8445 169.647 41.2772 170.033 41.6051C170.42 41.9342 170.927 42.1122 171.551 42.1412C172.058 42.1412 172.557 42.0749 173.049 41.94C173.54 41.8063 173.994 41.6435 174.411 41.4481C174.828 41.2551 175.2 41.0388 175.527 40.8004C175.855 40.562 176.138 40.3526 176.377 40.1735C178.193 38.7722 179.757 37.2441 181.068 35.5892C181.35 35.2322 181.627 34.8426 181.907 34.4728C181.844 35.045 181.807 35.6183 181.826 36.1928C181.916 38.0419 182.527 39.5025 183.658 40.5759C184.79 41.6505 186.368 42.1866 188.394 42.1866C188.752 42.1866 189.213 42.1796 189.78 42.1645C190.344 42.1494 190.985 42.0598 191.7 41.8959C192.415 41.733 193.175 41.4481 193.978 41.0469C194.782 40.6445 195.616 40.0561 196.48 39.2792C197.343 38.5047 198.125 37.6918 198.826 36.8417C199.525 35.9916 200.166 35.1415 200.747 34.2925C200.801 34.2135 200.849 34.139 200.902 34.0599C200.837 34.2867 200.764 34.5135 200.703 34.7391C200.24 36.423 199.965 38.1465 199.876 39.9049C199.906 40.1433 200.085 40.4119 200.412 40.7096C200.739 41.0085 201.105 41.269 201.506 41.4923C201.908 41.7156 202.273 41.8726 202.601 41.9621C202.928 42.0517 203.092 41.9924 203.092 41.783C203.241 39.8153 203.568 37.9442 204.076 36.1695C204.581 34.396 205.207 32.6435 205.952 30.9142C206.904 29.7512 207.828 28.693 208.722 27.7382C209.615 26.7846 210.642 25.7856 211.805 24.7413C212.847 23.847 213.62 23.3039 214.128 23.1085C214.633 22.9155 214.947 22.9678 215.065 23.2655C215.184 23.5644 215.155 24.0331 214.976 24.6738C214.798 25.3158 214.544 26.024 214.217 26.7985C213.71 28.022 213.248 29.1326 212.831 30.1315C212.414 31.1305 212.065 32.055 211.781 32.9051C211.498 33.7541 211.268 34.56 211.089 35.3206C210.91 36.0811 210.806 36.8487 210.777 37.6232C210.746 38.3989 210.836 39.0699 211.045 39.6363C211.253 40.2026 211.536 40.6655 211.894 41.0236C212.251 41.3807 212.676 41.6493 213.167 41.8284C213.658 42.0063 214.157 42.0959 214.663 42.0959C215.556 42.0959 216.48 41.7749 217.433 41.1341C218.386 40.4922 219.287 39.7246 220.136 38.8315C220.985 37.936 221.767 37.0045 222.482 36.0358C222.677 35.7706 222.833 35.5462 223.008 35.3043C222.976 35.7253 222.965 36.1846 222.996 36.7301C223.04 37.5348 223.226 38.3105 223.554 39.0559C223.881 39.8014 224.395 40.4503 225.095 41.0015C225.794 41.5528 226.785 41.8586 228.066 41.9179C228.781 41.9784 229.51 41.8365 230.256 41.4935C230.999 41.1516 231.73 40.6957 232.444 40.1293C233.16 39.563 233.852 38.921 234.522 38.2058C235.192 37.4906 235.824 36.7591 236.42 36.0137C236.212 36.7591 236.115 37.4906 236.13 38.2058C236.145 38.921 236.286 39.563 236.555 40.1293C236.823 40.6957 237.217 41.1574 237.738 41.5156C238.259 41.8738 238.937 42.0819 239.771 42.1424C240.308 42.1715 240.806 42.1191 241.267 41.9854C241.729 41.8517 242.161 41.6795 242.563 41.4725C242.965 41.2632 243.323 41.0399 243.635 40.8015C243.948 40.5631 244.208 40.3538 244.417 40.1747C245.251 39.4897 246.018 38.7292 246.718 37.8942C247.395 37.0859 248.037 36.2451 248.644 35.3787C248.618 35.7811 248.61 36.2184 248.638 36.7312C248.684 37.536 248.869 38.3117 249.197 39.0571C249.524 39.8026 250.038 40.4515 250.738 41.0027C251.438 41.5551 252.428 41.8598 253.71 41.9191C254.424 41.9796 255.153 41.8377 255.898 41.4946C256.642 41.1527 257.373 40.6969 258.087 40.1305C258.803 39.5642 259.495 38.9222 260.165 38.207C260.836 37.4918 261.467 36.7603 262.063 36.0149C261.855 36.7603 261.758 37.4918 261.773 38.207C261.788 38.9222 261.93 39.5642 262.198 40.1305C262.466 40.6969 262.86 41.1585 263.382 41.5167C263.902 41.8749 264.58 42.0831 265.414 42.1436C265.951 42.1726 266.449 42.1203 266.91 41.9866C267.373 41.8528 267.805 41.6807 268.207 41.4737C268.609 41.2644 268.966 41.0411 269.279 40.8027C269.591 40.5643 269.851 40.355 270.061 40.1759C270.895 39.4909 271.661 38.7303 272.362 37.8953C273.061 37.0603 273.724 36.1951 274.349 35.3008C274.975 34.4065 275.571 33.4831 276.137 32.5272C276.702 31.5736 277.283 30.6339 277.879 29.7094C278 29.5047 278.03 29.3256 277.971 29.1768ZM187.013 33.4692C187.251 32.5167 187.668 31.4189 188.264 30.1815C188.86 28.9442 189.589 27.744 190.453 26.5811C191.316 25.4181 192.299 24.3889 193.401 23.4946C194.502 22.6003 195.68 22.034 196.931 21.7944C197.764 21.6455 198.285 21.877 198.495 22.4887C198.702 23.0981 198.598 23.8377 198.181 24.7018C196.99 26.9683 195.427 28.8546 193.491 30.3606C191.554 31.8666 189.38 32.9621 186.969 33.6483C186.969 33.5901 186.983 33.5296 187.013 33.4692ZM238.745 29.6687L238.299 31.0096C237.911 31.6364 237.406 32.3679 236.78 33.2017C236.155 34.0367 235.492 34.8345 234.792 35.595C234.092 36.3556 233.4 37.0208 232.715 37.5848C232.029 38.1523 231.449 38.4954 230.972 38.614C229.96 38.8536 229.215 38.8082 228.739 38.4803C228.261 38.1523 227.949 37.6825 227.8 37.0708C227.652 36.4603 227.621 35.7962 227.711 35.081C227.8 34.3646 227.919 33.7529 228.069 33.2471C228.276 32.5016 228.567 31.6887 228.94 30.8084C229.311 29.9292 229.75 29.05 230.258 28.1696C230.763 27.2905 231.33 26.4404 231.955 25.6205C232.581 24.8006 233.251 24.0773 233.966 23.4504C234.68 22.8248 235.433 22.3328 236.221 21.9735C237.01 21.6165 237.822 21.4525 238.656 21.4816C239.61 21.542 240.258 21.8467 240.6 22.3991C240.942 22.9504 241.158 23.5249 241.247 24.1203C240.801 25.0751 240.361 26.0066 239.93 26.916C239.498 27.8277 239.103 28.7441 238.745 29.6687Z" fill="#D13763"/>
</svg>
